<svg xmlns="http://www.w3.org/2000/svg" viewBox="0 0 577 175">
  <defs/>
  <path fill="#ff8000" d="M130.128906 87.404297c0-2.288994-1.866211-4.160095-4.169907-4.160095-2.297897 0-4.162598 1.871101-4.162598 4.160095 0 2.309601 1.8647 4.181702 4.162598 4.181702 2.303696 0 4.169907-1.872101 4.169907-4.181702zm-2.389602-12.255798c-.638206-1.900398-2.679207-2.920898-4.550804-2.294998-1.888199.630898-2.916 2.659203-2.292496 4.550797.635696 1.877007 2.669395 2.904305 4.544899 2.287102 1.8936-.626901 2.914093-2.678697 2.298401-4.542901zm-5.491204-9.447297c-.9571-1.378899-2.863289-1.738304-4.257401-.766602-1.381302.951202-1.7314 2.869102-.7817 4.246101.963898 1.405296 2.866699 1.764595 4.266098.787094 1.392602-.971694 1.733407-2.853491.773003-4.266593zm-7.636802-7.202102c-1.124001-.941502-2.780701-.770599-3.713799.3564-.927795 1.1143-.772995 2.786102.3554 3.709999 1.125999.934502 2.797401.7724 3.708504-.351597.945801-1.133801.770996-2.789101-.350105-3.714802zm-8.410096-4.350601c-1.073303-.4795-2.334503-.018597-2.841301 1.041-.482903 1.060501-.024002 2.3447 1.040497 2.836903 1.077202.512699 2.356407.042 2.848602-1.033203.495598-1.080098.0327-2.346699-1.047798-2.8447zm-8.017105-2.163098c-.993195-.216801-1.962898.416-2.179695 1.4258-.204102.996098.433601 1.967697 1.42141 2.171799.993187.220699 1.982887-.417 2.186996-1.430599.206093-.995102-.43161-1.964901-1.428711-2.167zm-7.429695-.577202c-.875-.004898-1.57859.708-1.57859 1.5811 0 .875.70359 1.588902 1.57859 1.588902.87841 0 1.583496-.713902 1.583496-1.588902 0-.8731-.705086-1.585998-1.583496-1.5811zM59.721703 87.404297c0-2.288994-1.856003-4.160095-4.162601-4.160095-2.2925 0-4.1548 1.871101-4.1548 4.160095 0 2.309601 1.862301 4.181702 4.1548 4.181702 2.306598 0 4.162601-1.872101 4.162601-4.181702zm.920398 10.005905c-.638699-1.885803-2.673294-2.910202-4.544399-2.289101-1.909698.6231-2.9175 2.675797-2.305199 4.549797.621597 1.8965 2.660599 2.920898 4.552197 2.296898 1.892109-.632797 2.916107-2.662094 2.297401-4.557594zm3.672901 8.225601c-.961502-1.378906-2.866699-1.732506-4.256401-.766602-1.387699.946297-1.7393 2.8564-.797401 4.256798.9664 1.3731 2.878002 1.719704 4.274902.763702 1.384796-.951202 1.746598-2.863303.7789-4.253898zm5.9609 6.627899c-1.132301-.939499-2.792-.763702-3.721199.348595-.939499 1.125999-.772499 2.781303.350601 3.709 1.132797.950203 2.796898.786102 3.725098-.350594.928703-1.120102.7612-2.796806-.3545-3.707001zm6.840797 4.525399c-1.066399-.511703-2.334496-.043999-2.832497 1.028297-.490204 1.0811-.0327 2.349602 1.042496 2.847702 1.059113.495102 2.338402.0439 2.843201-1.048897.492203-1.051704.016602-2.337906-1.0532-2.827102zm6.996605 2.444297c-.996605-.200195-1.986305.442398-2.185104 1.432602-.211388.991302.433609 1.9776 1.427299 2.179703.985802.213898 1.975601-.422806 2.179199-1.428703.2099-.997101-.436996-1.968697-1.421394-2.183602zm6.660095 1c-.880295 0-1.585396.721703-1.585396 1.586899 0 .878006.705101 1.577202 1.585396 1.588905.871101-.011703 1.584-.710899 1.584-1.588905 0-.865196-.712898-1.586899-1.584-1.586899zM56.090302 79.698303c1.880901.629898 3.917507-.405304 4.545506-2.287102.623001-1.879898-.393604-3.917-2.295506-4.548904-1.887199-.621994-3.916492.391602-4.547798 2.287102-.612302 1.871101.3955 3.923904 2.297798 4.548904zm3.960998-9.730507c1.389603.969704 3.292.607407 4.274399-.782196.940399-1.3946.5952-3.288101-.798298-4.257797-1.388699-.960003-3.293999-.610405-4.250999.773399-.9683 1.389595-.611302 3.306595.774898 4.266594zm6.503899-7.761696c.929199 1.1269 2.588402 1.2939 3.723106.3428 1.122597-.9151 1.283195-2.586002.355507-3.700199-.93161-1.131901-2.582512-1.298901-3.719711-.353603-1.126503.920902-1.293999 2.584004-.358902 3.711002zM74.277405 57c.498993 1.0723 1.784096 1.539101 2.850098 1.026402 1.077095-.482403 1.534599-1.757801 1.042397-2.828102-.504799-1.068398-1.784088-1.529301-2.843201-1.049801-1.075196.506801-1.5327 1.7714-1.049294 2.851501zm7.641594-2.8535c.212807 1.019501 1.19381 1.648399 2.1884 1.436501.9991-.2099 1.636803-1.175701 1.427299-2.180599-.209496-.991199-1.199196-1.633801-2.179695-1.422901-1.009803.207999-1.642105 1.1738-1.436004 2.166999zm41.2695 47.832c1.871597.631897 3.918404-.411102 4.550804-2.302704.621597-1.866196-.399002-3.913094-2.297905-4.549797-1.8955-.618202-3.915001.407204-4.540001 2.292-.628898 1.8955.393502 3.925804 2.287102 4.560501zm-5.1865 7.907303c1.374001.963799 3.300697.609299 4.253899-.7686.961914-1.404305.603004-3.301704-.774895-4.256805-1.415604-.965797-3.303703-.625999-4.266106.775406-.940498 1.378898-.610397 3.310493.787102 4.249999zm-7.100601 6.0849c.929703 1.135796 2.597099 1.299797 3.716301.349594 1.122505-.927696 1.290001-2.588799.3442-3.718697-.911087-1.115204-2.573196-1.285202-3.701088-.337898-1.113808.910195-1.28521 2.577095-.359413 3.707001zm-7.541497 3.658196c.495598 1.086899 1.782196 1.547905 2.846703 1.057701 1.079094-.508797 1.537994-1.783302 1.042397-2.861397-.510193-1.074203-1.767502-1.5439-2.848602-1.035103-1.063996.502899-1.5234 1.774399-1.040498 2.838799zm-7.363304 1.778404c.204102 1.009697 1.193802 1.652298 2.185501 1.432594 1.001999-.205093 1.636299-1.195297 1.426804-2.180695-.200699-.992203-1.193802-1.625999-2.18309-1.425804-.987808.210999-1.634812 1.182602-1.429215 2.173905zM117.163101 73.041c-.842293-1.533203-2.7705-2.114197-4.323204-1.283203-1.541496.8526-2.1138 2.784203-1.275398 4.316406.841805 1.547897 2.770004 2.126999 4.322701 1.301796 1.545402-.8525 2.115699-2.79 1.275901-4.334999zm-5.960502-7.492103c-1.195297-1.119194-3.056099-1.0606-4.1586.127907-1.091797 1.195297-1.049797 3.059593.146004 4.170898 1.180595 1.096695 3.056099 1.042 4.160599-.140602 1.1025-1.192398 1.049796-3.0606-.148003-4.158203zm-7.401787-4.492195c-1.221214-.6133-2.724609-.115303-3.34771 1.161098-.601501 1.213902-.102501 2.730503 1.136795 3.340801 1.243103.601601 2.753914.117195 3.3554-1.148399.608902-1.252903.103508-2.7285-1.144485-3.3535zM96.2295 59.219799c-1.175301-.233398-2.272499.524403-2.494598 1.671803-.222702 1.143597.539001 2.263699 1.674797 2.475597 1.162605.2276 2.263199-.5322 2.494598-1.666.216804-1.166001-.544899-2.255898-1.674797-2.4814zm-7.2715.253902c-.885696.0625-1.563896.830997-1.517998 1.727497.065399.8936.838295 1.587902 1.742096 1.533203.9058-.053703 1.580101-.846703 1.525406-1.749001-.071304-.900401-.840301-1.567401-1.749504-1.511699zm-6.162597 1.4707c-.738304.212898-1.1465 1.0009-.933098 1.75.233398.743099 1.007797 1.169899 1.744194.944298.754402-.221699 1.164505-1.0215.936501-1.7598-.210999-.7431-.987801-1.161099-1.747597-.934498zm-5.180596 2.328098c-.594307.308601-.811104 1.058601-.490303 1.642601.318893.577103 1.0532.816399 1.647499.484299.579598-.322197.803696-1.066399.492195-1.649399-.322799-.589802-1.079094-.799801-1.649391-.477501zm-7.668503 35.4599c-.851105-1.537102-2.773903-2.110298-4.3228-1.267502-1.537605.845703-2.094204 2.7715-1.250404 4.3134.833 1.530304 2.755798 2.1231 4.306602 1.289101 1.540002-.852501 2.105996-2.787102 1.266602-4.334999zm4.4189 6.233398c-1.196205-1.1035-3.055099-1.041901-4.150299.134804-1.116302 1.193398-1.045006 3.059601.132294 4.155296 1.186501 1.112305 3.056107 1.057602 4.158699-.121094 1.109802-1.212905 1.057106-3.064506-.140694-4.169006zm5.387298 4.170006c-1.232002-.605507-2.735405-.107506-3.364304 1.125-.602997 1.2295-.120094 2.7099 1.097198 3.368095 1.241203.609398 2.740707.109398 3.384201-1.137695.617708-1.212906.112802-2.726501-1.117095-3.3554zm6.363701 2.325196c-1.151802-.219795-2.254395.5224-2.485802 1.660103-.2295 1.167999.522896 2.264702 1.666 2.501999 1.17141.225601 2.2705-.526398 2.496597-1.688499.218705-1.1475-.539595-2.261705-1.676795-2.473603zm6.221199.631797c-.907204.043907-1.580101.833-1.520004 1.729507.073204.905296.836906 1.585899 1.7388 1.520493.895004-.053696 1.576614-.830093 1.51461-1.736298-.032707-.896499-.834907-1.567397-1.733406-1.513702zm5.582497-.906196c-.743599.234299-1.157196 1.015602-.945801 1.743103.232903.756897 1.0093 1.171898 1.762199.962898.732513-.233398 1.173904-1.019501.940514-1.773399-.224212-.728501-1.009811-1.143601-1.756912-.932602zm4.828201-1.767601c-.583.3125-.789101 1.0644-.473701 1.643501.316902.585999 1.049805.795898 1.640205.483398.579597-.3125.814896-1.048798.486794-1.632797-.315499-.593704-1.055199-.816398-1.653298-.494102zM64.6436 94.659203c1.381798-.241203 2.278297-1.548805 2.0215-2.900406-.246101-1.364197-1.536697-2.2939-2.912598-2.0205-1.362801.251007-2.264202 1.539101-2.0191 2.909203.248501 1.342803 1.541001 2.272399 2.910198 2.011703zm-.808097-8.0225c1.117096.138695 2.128899-.704102 2.274399-1.818306.089302-1.124001-.728996-2.125-1.861397-2.242195-1.105404-.120102-2.114204.699196-2.235302 1.810501-.126 1.120194.692398 2.1456 1.8223 2.25zm1.5195-7.3544c.98581.383697 2.121102-.074303 2.529297-1.087006.394005-.984299-.089897-2.117096-1.081596-2.506798-.991203-.397499-2.107399.069298-2.529305 1.078102-.383697.974602.090409 2.103501 1.081604 2.515702zm3.248497-6.247101c.729004.533195 1.749504.387695 2.281799-.358398.546402-.711906.396904-1.735405-.328201-2.256905-.733795-.548798-1.754799-.3955-2.2817.328201-.546898.727501-.384796 1.743103.328102 2.287102zm4.073311-4.690399c.535088.5849 1.411591.666901 1.994591.1689.599602-.526405.6689-1.412102.176796-1.997101-.506386-.576103-1.415596-.656204-1.996094-.153305-.593292.521507-.660705 1.3955-.175293 1.981506zm45.098091 16.743095c1.359398-.2285 2.272499-1.547798 2.008301-2.909195-.222603-1.351501-1.538101-2.263603-2.908707-2.014603-1.357895.261696-2.267097 1.545898-2.014099 2.915001.264603 1.357499 1.547303 2.273499 2.914505 2.008797zm-.512703 7.152405c1.111801.133797 2.130402-.694405 2.249001-1.801804.125999-1.137703-.699699-2.132797-1.811501-2.253899-1.137199-.108398-2.142998.703102-2.259697 1.810501-.120704 1.113297.6997 2.143601 1.822197 2.245202zm-2.538597 6.889595c.991295.413101 2.128998-.076195 2.507896-1.078094.396904-.991203-.062096-2.110405-1.0718-2.512703-.981995-.3955-2.108398.069298-2.5093 1.079102-.384796.988296.092804 2.114196 1.073204 2.511695zm-3.745605 5.291c.723701.534203 1.753502.389702 2.283707-.346695.544998-.726501.382797-1.741203-.326103-2.281204-.747101-.538101-1.773499-.3936-2.294502.336899-.539498.727501-.382798 1.7481.336898 2.291zm-4.306099 3.871102c.516106.6035 1.414001.670898 2.004913.166.599586-.496101.674286-1.400398.156693-1.988197-.497604-.576202-1.399902-.641602-1.980904-.156303-.596199.508804-.668999 1.401397-.180702 1.9785zm-.315399-36.386704c-1.184601-1.167999-3.063499-1.191399-4.228096.014603-1.153305 1.108398-1.153305 2.9981 0 4.153404 1.164597 1.171799 3.043495 1.1894 4.211899.029297 1.177299-1.184601 1.204597-3.035202.016197-4.197304zm-7.4888-4.628898c-1.353996-.554695-2.919395.123001-3.491699 1.459-.543 1.348602.131301 2.971702 1.472602 3.506805 1.403397.550797 2.948799-.118103 3.491699-1.493103.565003-1.371102-.105903-2.909203-1.472602-3.472702zm-8.064995-.971695c-1.299301-.004906-2.376404 1.0606-2.376404 2.376999.022003 1.2295 1.044403 2.3125 2.367699 2.317398 1.270004.024399 2.357903-1.045898 2.332504-2.341797.025398-1.2481-1.038605-2.334999-2.323799-2.3526zM83.029808 68.709c-.900406.360397-1.319305 1.387703-.967804 2.267601.400894.913101 1.414597 1.337898 2.312996.991196.903809-.391594 1.304703-1.4375.931198-2.310493-.356995-.915101-1.392593-1.319406-2.27639-.948304zm-3.749001 30.066398C78.1436 97.599602 76.25 97.601601 75.1035 98.7481c-1.191399 1.182602-1.204597 3.048798-.050797 4.213799 1.1866 1.161201 3.0616 1.169998 4.228104.031303 1.169892-1.167 1.169892-3.046905 0-4.217804zm5.318795 3.835999c-1.374001-.578194-2.930603.124001-3.502899 1.503906-.528305 1.366196.151398 2.942299 1.514595 3.467697 1.339401.543999 2.914101-.069298 3.46051-1.450203.556091-1.386696-.092804-2.940399-1.472206-3.5214zm6.058601 1.213806c-1.283203-.0215-2.336395 1.050797-2.3638 2.346695.027405 1.335899 1.080597 2.348602 2.345695 2.382805 1.3013-.028305 2.358002-1.046906 2.387299-2.352501.020004-1.284203-1.044494-2.343804-2.369194-2.376999zm6.422897-.910103c-.875.358398-1.335999 1.3545-.945801 2.268501.366203.8955 1.403297 1.337898 2.285103.983398.891098-.381798 1.339897-1.381798.935097-2.305603-.342796-.904296-1.385299-1.3311-2.274399-.946296zm-23.235397-6.250999c1.277397-.490204 1.942398-1.920898 1.414108-3.255898-.473709-1.283203-1.937508-1.921806-3.212914-1.389603-1.288596.496102-1.913596 1.9404-1.421897 3.2109.5103 1.277397 1.924812 1.9365 3.220703 1.434601zm-1.9048-7.616204c1.042496.005806 1.929695-.850594 1.953598-1.921898.018097-1.046898-.867599-1.930702-1.878899-1.949196-1.087898-.021507-1.9702.809593-1.993599 1.881798-.0205 1.088898.847199 1.967797 1.9189 1.989296zm1.083496-7.238296c.847206.318398 1.782303-.065399 2.131905-.888702.329994-.817398-.048904-1.764595-.8619-2.125-.827103-.348595-1.8022.065498-2.120598.886703-.339806.813499.045005 1.762695.850593 2.126999zm36.382301 1.034202c1.290108-.484406 1.906303-1.936501 1.377502-3.234406-.48439-1.253899-1.906303-1.925797-3.163605-1.421898-1.319298.516602-1.96479 1.945297-1.459496 3.2276.51571 1.306604 1.955102 1.927697 3.245599 1.428704zm.031799 6.8564c1.080605 0 1.953598-.846703 1.957504-1.917.030807-1.056602-.816406-1.955002-1.892105-1.969704-1.049301-.013702-1.960899.8125-1.986298 1.8965.010697 1.060501.865701 1.944298 1.920899 1.990204zm-2.296897 6.3321c.834999.359299 1.778801-.049904 2.128899-.864304.338898-.815399-.0513-1.773399-.865692-2.113297-.833-.366203-1.767609.029297-2.086906.864296-.3789.838799.0493 1.796799.823699 2.113305zM76.547905 75.4785c.646904.637703 1.6782.667 2.305099-.008698.608894-.622101.632393-1.648506-.007301-2.272499-.639603-.625-1.650894-.615204-2.287102-.003906-.614303.6279-.614303 1.654305-.010696 2.285103zm26.024399 26.180703c.6689.6465 1.660095.668999 2.294395-.006805.640106-.592796.6763-1.588898.0093-2.225594-.612297-.662102-1.669395-.652405-2.276398-.041-.626899.634696-.634299 1.673797-.027297 2.273399zM87.745598 73.798897c-1.284698.260704-2.066399 1.515602-1.818787 2.735306.320793 1.249001 1.534592 2.048798 2.808586 1.754898 1.233803-.272499 2.024414-1.505898 1.7509-2.752899-.287597-1.232499-1.532195-2.035203-2.740699-1.737305zm-6.785095 3.7919c-.834503.886803-.876503 2.275406-.012695 3.129906.867592.876999 2.259697.884796 3.168892 0 .845703-.8545.845703-2.243103-.028801-3.129906-.865701-.860298-2.265595-.849594-3.127396 0zm-2.7715 6.5215c-.228104.827202.2407 1.615303 1.071297 1.866203.764099.200203 1.589302-.277298 1.797302-1.0644.231499-.801804-.278793-1.606499-1.051704-1.823303-.7837-.212799-1.598198.244202-1.816895 1.0215zM92.835899 96.6875c-1.201088.299797-2.034088 1.538101-1.737297 2.75.262695 1.263702 1.533203 2.058601 2.770599 1.784203 1.262604-.258804 2.026299-1.531204 1.774902-2.772499-.302291-1.268502-1.532805-2.010705-2.808204-1.761704zm4.6568-2.442398c-.845696.879898-.845696 2.295898.016601 3.177795.887703.847603 2.2817.833 3.083511-.007797.915001-.860397.93309-2.303703.056587-3.140701-.889587-.882797-2.268996-.882797-3.156699-.029297zm3.033699-4.1679c-.184097.840797.232903 1.627899 1.045906 1.843697.807098.221703 1.638199-.290001 1.849594-1.060501.211403-.792999-.273499-1.597694-1.073296-1.803696-.794403-.233399-1.611305.2509-1.822204 1.0205zM96.8442 77.231499c.408302-1.0205-.140099-2.246101-1.184502-2.614296-1.087891-.4189-2.221695.119194-2.677299 1.213898-.410095 1.042999.156799 2.212898 1.215408 2.625 1.081002.348602 2.23819-.150399 2.646393-1.224602zm-8.245598 22.011703c.428299-1.032204-.1381-2.251999-1.173302-2.622101-1.091797-.424805-2.231003.110397-2.6772 1.214897-.406288 1.039001.149399 2.2099 1.220711 2.623001 1.077087.356499 2.230888-.158202 2.629791-1.215797zM100.782204 81.5616c.681694-.556702.759796-1.496101.2715-2.151398-.544891-.630905-1.494606-.7481-2.145004-.249001-.6343.493095-.765602 1.458-.2314 2.113197.495597.655305 1.456001.817399 2.104904.287202zM82.637703 95.805702c.679695-.556602.762199-1.493202.275398-2.151405-.550293-.635696-1.496101-.7519-2.154289-.253899-.637711.487305-.757812 1.453102-.231407 2.113304.495994.655297 1.457992.818398 2.110298.292zm19.533195-9.543999c.5737-.131805.936501-.701103.839912-1.284103-.131409-.607498-.714409-1.014702-1.292-.861397-.612312.096695-.967812.6875-.855003 1.254898.116692.601601.700196 1.017601 1.307091.890602zm-22.1968 4.633797c.573799-.1269.938499-.701103.839905-1.284103-.127502-.597694-.7071-1.004898-1.2901-.8545-.616203.1035-.973091.686501-.854904 1.245102.122001.615204.698204 1.034202 1.305099.893501z"/>
  <path fill="#666" d="M174.056702 78.743202h-7.216797v20.785095c0 .395599-.327209.723701-.729004.723701H162.5327c-.397888 0-.720703-.328102-.720703-.723701V78.743202h-7.22699c-.396011 0-.725113-.25-.725113-.647499v-2.859306c0-.401398.329102-.6875.725113-.6875h19.471695c.3974 0 .725494.286102.725494.6875v2.859306c0 .397499-.328094.647499-.725494.647499zm26.830993 20.785095v-24.2919c0-.401398-.330093-.6875-.723602-.6875h-3.576202c-.406189 0-.7314.286102-.7314.6875v9.3964h-11.46199v-9.3964c0-.401398-.327103-.6875-.718689-.6875h-3.582001c-.40242 0-.725616.286102-.725616.6875v24.291901c0 .395599.323196.723701.725616.723701h3.582001c.391586 0 .718689-.328102.718689-.723701v-10.4824h11.46199v10.482399c0 .395599.325211.723701.7314.723701h3.576202c.393509.000001.723602-.328101.723602-.723701zm28.711899-13.9794V89.251c0 7.960899-5.530304 11.288101-11.502899 11.288101-5.968796 0-11.495102-3.327202-11.495102-11.288101v-3.702103c0-7.959 5.526306-11.287193 11.495102-11.287193 5.972595-.000001 11.502899 3.328193 11.502899 11.287193zm-5.071289 0c0-4.774498-2.884705-6.910194-6.43161-6.910194-3.544891 0-6.433594 2.135696-6.433594 6.910194V89.251c0 4.776398 2.888702 6.908203 6.433594 6.908203 3.546906 0 6.43161-2.131805 6.43161-6.908203v-3.702103zM261.394501 99.709V75.994202c0-.796898-.652313-1.445305-1.448212-1.445305H256.9776c-.576202 0-1.085007.358406-1.337906.868103l-6.939499 14.134804c-.186493.325195-.258804.505798-.399384.505798-.151413 0-.225616-.180603-.404312-.505798L240.954102 75.417c-.254898-.509697-.762711-.868103-1.336899-.868103h-2.968811c-.797791 0-1.450089.648407-1.450089 1.445305V99.709c0 .360397.291901.542999.620987.542999h3.651413c.325195 0 .580109-.367195.580109-.723701v-15.6455c0-.252899.037079-.359299.10939-.359299.031189 0 .105392.1064.182602.214798l5.880798 12.9375c.209.3936.681702.616203 1.15239.616203h1.882812c.470688 0 .938492-.222603 1.150391-.616203l5.841812-12.9375c.078094-.108398.150391-.214798.177704-.214798.079102 0 .11618.1064.11618.359299v15.6455c0 .356506.252991.723701.57431.723701h3.656189c.32721 0 .619111-.182602.619111-.542999zm80.311584-.905297V75.236397c0-.401398-.291992-.6875-.689484-.6875h-3.113312c-.402283 0-.690399.286102-.690399.6875v17.849602c0 .213799-.103485.328102-.175781.328102-.114227 0-.219727-.114304-.288116-.290001l-10.208008-17.413101c-.439392-.945297-.8349-1.162102-1.593689-1.162102h-3.911194c-.795898 0-1.440399.648407-1.440399 1.445305v23.534096c0 .395599.317383.723701.723602.723701h3.06839c.397491 0 .689514-.328102.689514-.723701V82.509804c0-.214905.079071-.293007.182587-.293007.107391 0 .219696.078102.323212.293007l9.81839 16.442398c.566406 1.299797 1.330109 1.299797 2.198212 1.299797h3.660187c.793883 0 1.446288-.649399 1.446288-1.448296zm-55.269592-5.810501c0-3.470703-1.972595-5.265602-5.030182-6.5-2.404327-.966805-4.516602-1.788101-6.124115-2.420898-1.600494-.634804-2.962891-1.732407-2.962891-2.923805 0-1.625999 2.014679-2.568398 4.685577-2.568398 3.151428 0 5.628937.440399 8.019501.658195h.072327c.360291 0 .611298-.2939.611298-.651398v-2.679596c0-.359406-.28421-.614304-.648407-.684601-1.226593-.293999-4.383789-.950203-7.834991-.950203-6.727509 0-9.935516 2.893501-9.935516 6.875999 0 2.530205 1.115204 5.024399 4.268494 6.326103 3.160217 1.303696 9.629913 2.805695 9.629913 5.5186 0 2.098595-.976593 3.2519-4.200195 3.2519-3.344696 0-6.731415-.473602-8.179718-.655205h-.072205c-.360382 0-.685577.2929-.685577.6894v2.606506c0 .398399.325195.648399.685577.719696 1.740204.400398 4.985321.951202 8.179718.951202 7.243102.000003 9.521392-3.911199 9.521392-7.563497zm27.550812-7.444305V89.251c0 7.960899-5.526398 11.288101-11.495117 11.288101-5.968781 0-11.495087-3.327202-11.495087-11.288101v-3.702103c0-7.959 5.526306-11.287193 11.495087-11.287193 5.968719-.000001 11.495117 3.328193 11.495117 11.287193zm-5.061493 0c0-4.774498-2.886719-6.910194-6.433624-6.910194s-6.433594 2.135696-6.433594 6.910194V89.251c0 4.776398 2.886688 6.908203 6.433594 6.908203s6.433624-2.131805 6.433624-6.908203v-3.702103zm70.738281 14.2714c0 .2491-.144592.431702-.432587.431702H374.8125c-.395508 0-.542999-.367195-.72168-.723701l-5.211914-8.774399h-.801727c-.944366 0-3.868195-.1035-4.701172-.1465v8.920898c0 .395599-.292023.723701-.689514.723701h-3.620087c-.393524 0-.720703-.328102-.720703-.723701V75.8125c0-.723602.42868-.977501 1.158203-1.084 1.882782-.288002 5.927795-.466797 8.573273-.466797 5.571228 0 10.716827 1.991295 10.716827 8.175797v.328201c0 3.830002-1.916107 5.927696-4.88092 7.080002l5.676819 9.682594c.074188.108406.074188.212006.074188.292zM373.801819 82.4375c0-2.713799-2.10553-3.872002-5.72464-3.872002-.762695 0-4.054688.073204-4.701172.1455v7.844704c.574188.037094 4.080078.110298 4.701172.110298 3.723633 0 5.72464-.717697 5.72464-3.900299V82.4375zm15.509674 6.608398h11.582092c.3974 0 .724609-.325195.724609-.718697v-2.613304c0-.3936-.327209-.720695-.724609-.720695h-11.582092v-3.318405c0-3.026299.116211-3.109299 2.853607-3.109299h9.161102c.3974 0 .725616-.3311.725616-.726601v-2.311501c0-.508797-.182617-.692398-.725616-.761696-1.158203-.177803-3.515594-.503998-7.81839-.503998-6.006805 0-9.193329-.041901-9.193329 7.413094V93.1241c0 7.456001 3.186523 7.415001 9.193329 7.415001 4.302795 0 6.660187-.323303 7.81839-.506798.542999-.069405.725616-.250999.725616-.760803v-2.311501c0-.3965-.328217-.721703-.725616-.721703H392.1651c-2.737396 0-2.853607-.081993-2.853607-3.114197v-4.078201zm39.832092 1.25V75.236397c0-.401398-.325195-.6875-.7276-.6875h-3.582001c-.397491 0-.720703.286102-.720703.6875v15.059502c0 4.126999-1.905304 6.083-5.814484 6.083-3.901306 0-5.810516-1.956001-5.810516-6.083V75.236397c0-.401398-.323181-.6875-.724579-.6875h-3.575195c-.397522 0-.726624.286102-.726624.6875v15.059502c0 7.710999 5.014709 10.243202 10.836914 10.243202 5.828187 0 10.844788-2.532204 10.844788-10.243203zm24.510712-12.200195v-2.859306c0-.401398-.325195-.6875-.718719-.6875h-19.479492c-.391602 0-.718781.286102-.718781.6875v2.859306c0 .397499.327179.647499.718781.647499h7.223602v20.785095c0 .395599.327118.723701.724609.723701h3.583008c.397491 0 .730499-.328102.730499-.723701V78.743202h7.217773c.393525 0 .71872-.25.71872-.647499zm48.855499 21.724594c0 .2491-.148499.431702-.432617.431702h-4.418976c-.399384 0-.541016-.367195-.719727-.723701l-5.216797-8.774399h-.804688c-.9375 0-3.865173-.1035-4.701172-.1465v8.920898c0 .395599-.286133.723701-.681641.723701h-3.61618c-.397522 0-.724609-.328102-.724609-.723701V75.8125c0-.723602.430603-.977501 1.156189-1.084 1.878906-.288002 5.929718-.466797 8.567413-.466797 5.577209 0 10.718811 1.991295 10.718811 8.175797v.328201c0 3.830002-1.919983 5.927696-4.884827 7.080002l5.686523 9.682594c.072298.108406.072298.212006.072298.292zM496.646484 82.4375c0-2.713799-2.106384-3.872002-5.729492-3.872002-.756805 0-4.048798.073204-4.701172.1455v7.844704c.585999.037094 4.095673.110298 4.701172.110298 3.733398 0 5.729492-.717697 5.729492-3.900299V82.4375zm28.755921 10.555702c0-3.470703-1.9776-5.265602-5.024536-6.5-2.406189-.966805-4.512695-1.788101-6.120056-2.420898-1.606445-.638702-2.964813-1.732407-2.964813-2.923805 0-1.625999 2.004913-2.568398 4.687469-2.568398 3.145508 0 5.622131.440399 8.012695.658195h.069336c.368164 0 .614319-.2939.614319-.651398v-2.679596c0-.359406-.285217-.614304-.648499-.684601-1.230408-.293999-4.387756-.950203-7.835938-.950203-6.729492 0-9.933563 2.893501-9.933563 6.875999 0 2.530205 1.115173 5.024399 4.261658 6.326103 3.163116 1.303696 9.641632 2.805695 9.641632 5.5186 0 2.098595-.985291 3.2519-4.203125 3.2519-3.344666 0-6.731384-.473602-8.179688-.655205H507.707c-.358398 0-.688416.2929-.688416.6894v2.606506c0 .398399.330017.648399.688416.719696 1.736389.400398 4.979462.951202 8.177826.951202 7.238282.000003 9.517579-3.911199 9.517579-7.563497zm-63.029328-3.947304h11.581024c.401398 0 .716797-.325195.716797-.718697v-2.613304c0-.3936-.315399-.720695-.716797-.720695h-11.581024v-3.318405c0-3.026299.11322-3.109299 2.854523-3.109299h9.165985c.387695 0 .718719-.3311.718719-.726601v-2.311501c0-.508797-.182617-.692398-.718719-.761696-1.164093-.177803-3.517609-.503998-7.821289-.503998-6.016602 0-9.19632-.041901-9.19632 7.413094V93.1241c0 7.456001 3.179718 7.415001 9.19632 7.415001 4.30368 0 6.657196-.323303 7.821289-.506798.536102-.069405.718719-.250999.718719-.760803v-2.311501c0-.3965-.331024-.721703-.718719-.721703H465.2276c-2.741302 0-2.854523-.081993-2.854523-3.114197v-4.078201zm66.828095-9.535095c0 2.841797 2.096741 5.247993 5.294922 5.247993s5.31842-2.406197 5.31842-5.247993c0-2.864304-2.120239-5.219803-5.31842-5.219803s-5.294922 2.3555-5.294922 5.219803zm.771545 0c0-2.527405 1.780151-4.545906 4.523376-4.545906 2.766602 0 4.545898 2.018501 4.545898 4.545906 0 2.528297-1.779297 4.574196-4.545898 4.574196-2.743224 0-4.523376-2.045898-4.523376-4.574196zm6.926697 2.338799l-1.148438-1.956001c.599609-.232399.987305-.655304.987305-1.428703V78.3994c0-1.25-1.039062-1.651299-2.164978-1.651299-.531311 0-1.349731.036102-1.729492.094696-.146545.0205-.233398.072304-.233398.218803v4.788002c0 .079102.066406.1455.146423.1455h.730469c.079102 0 .136658-.066399.136658-.1455v-1.801704c.170044.008804.760864.030304.949341.030304h.162964l1.053833 1.7714c.035095.071297.064392.1455.14447.1455h.892639c.05658 0 .086853-.037102.086853-.086899-.000001-.016601-.000001-.037102-.014649-.058601zm-1.168945-3.384705c0 .641602-.403259.787102-1.157166.787102-.122131 0-.830139-.014702-.949341-.022499v-1.583c.132874-.015602.796936-.029297.949341-.029297.732361 0 1.157166.233398 1.157166.782196v.065498z"/>
</svg>