<?xml version="1.0" encoding="UTF-8"?>
<svg xmlns="http://www.w3.org/2000/svg" xmlns:xlink="http://www.w3.org/1999/xlink" width="491.03pt" height="200.63pt" viewBox="0 0 491.03 200.63" version="1.1">
<g id="surface1">
<path style=" stroke:none;fill-rule:nonzero;fill:rgb(92.939758%,10.978699%,14.118958%);fill-opacity:1;" d="M 92.242188 40.121094 L 40.121094 70.21875 L 92.242188 100.316406 L 144.367188 70.21875 L 92.242188 40.121094 "/>
<path style=" stroke:none;fill-rule:nonzero;fill:rgb(30.917358%,29.660034%,29.972839%);fill-opacity:1;" d="M 40.117188 130.410156 L 92.246094 160.5 L 92.242188 100.316406 Z M 40.117188 130.410156 "/>
<path style=" stroke:none;fill-rule:nonzero;fill:rgb(54.336548%,53.50647%,53.712463%);fill-opacity:1;" d="M 92.242188 100.316406 L 92.246094 160.5 L 144.367188 130.410156 L 92.242188 100.316406 "/>
<path style=" stroke:none;fill-rule:nonzero;fill:rgb(54.336548%,53.50647%,53.712463%);fill-opacity:1;" d="M 92.242188 100.316406 L 40.121094 70.21875 L 40.117188 130.410156 L 92.242188 100.316406 "/>
<path style=" stroke:none;fill-rule:nonzero;fill:rgb(92.939758%,10.978699%,14.118958%);fill-opacity:1;" d="M 287.253906 125.824219 C 286.796875 121.355469 284.160156 117.855469 279.570312 117.855469 C 275.328125 117.855469 272.347656 121.121094 271.71875 125.824219 Z M 264.839844 128.0625 L 264.839844 127.945312 C 264.839844 119.289062 270.972656 112.179688 279.628906 112.179688 C 289.261719 112.179688 294.132812 119.746094 294.132812 128.460938 C 294.132812 129.09375 294.074219 129.722656 294.019531 130.410156 L 271.777344 130.410156 C 272.523438 135.339844 276.019531 138.09375 280.488281 138.09375 C 283.871094 138.09375 286.28125 136.828125 288.6875 134.480469 L 292.757812 138.09375 C 289.890625 141.53125 285.933594 143.769531 280.375 143.769531 C 271.601562 143.769531 264.839844 137.40625 264.839844 128.0625 Z M 242.425781 112.808594 L 249.363281 112.808594 L 249.363281 119.632812 C 251.253906 115.105469 254.75 112.007812 260.082031 112.238281 L 260.082031 119.574219 L 259.683594 119.574219 C 253.605469 119.574219 249.363281 123.53125 249.363281 131.558594 L 249.363281 143.082031 L 242.425781 143.082031 Z M 229.011719 128.117188 L 229.011719 128.003906 C 229.011719 122.671875 225.171875 118.257812 219.726562 118.257812 C 214.164062 118.257812 210.613281 122.613281 210.613281 127.886719 L 210.613281 128.003906 C 210.613281 133.277344 214.449219 137.691406 219.839844 137.691406 C 225.457031 137.691406 229.011719 133.332031 229.011719 128.117188 Z M 203.675781 128.117188 L 203.675781 128.003906 C 203.675781 119.347656 210.554688 112.179688 219.839844 112.179688 C 229.128906 112.179688 235.949219 119.230469 235.949219 127.886719 L 235.949219 128.003906 C 235.949219 136.601562 229.070312 143.769531 219.726562 143.769531 C 210.496094 143.769531 203.675781 136.71875 203.675781 128.117188 Z M 162.914062 123.128906 L 162.914062 123.015625 C 162.914062 111.605469 171.457031 102.261719 183.613281 102.261719 C 191.007812 102.261719 195.476562 104.84375 199.320312 108.511719 L 194.789062 113.730469 C 191.582031 110.746094 188.140625 108.742188 183.554688 108.742188 C 175.929688 108.742188 170.3125 115.046875 170.3125 122.902344 L 170.3125 123.015625 C 170.3125 130.867188 175.871094 137.230469 183.554688 137.230469 C 188.484375 137.230469 191.636719 135.28125 195.074219 132.074219 L 199.605469 136.660156 C 195.421875 141.015625 190.835938 143.769531 183.324219 143.769531 C 171.628906 143.769531 162.914062 134.652344 162.914062 123.128906 "/>
<path style=" stroke:none;fill-rule:nonzero;fill:rgb(54.336548%,53.50647%,53.712463%);fill-opacity:1;" d="M 422.882812 128.117188 L 422.882812 128.003906 C 422.882812 119.40625 429.53125 112.179688 438.644531 112.179688 C 444.320312 112.179688 447.878906 114.300781 450.742188 117.398438 L 446.386719 122.039062 C 444.265625 119.804688 442.027344 118.257812 438.589844 118.257812 C 433.546875 118.257812 429.820312 122.613281 429.820312 127.886719 L 429.820312 128.003906 C 429.820312 133.394531 433.546875 137.691406 438.878906 137.691406 C 442.144531 137.691406 444.550781 136.199219 446.730469 133.964844 L 450.914062 138.09375 C 447.933594 141.417969 444.4375 143.769531 438.53125 143.769531 C 429.53125 143.769531 422.882812 136.71875 422.882812 128.117188 Z M 408.835938 112.808594 L 415.773438 112.808594 L 415.773438 143.082031 L 408.835938 143.082031 Z M 408.550781 101.574219 L 416.003906 101.574219 L 416.003906 108.164062 L 408.550781 108.164062 Z M 393.476562 126.453125 L 393.476562 126.339844 C 393.476562 121.410156 389.40625 118.027344 384.589844 118.027344 C 379.773438 118.027344 375.988281 121.355469 375.988281 126.339844 L 375.988281 126.453125 C 375.988281 131.386719 379.832031 134.769531 384.589844 134.769531 C 389.40625 134.769531 393.476562 131.386719 393.476562 126.453125 Z M 370.488281 148.757812 L 373.066406 143.539062 C 376.332031 145.542969 379.714844 146.75 383.84375 146.75 C 390.035156 146.75 393.417969 143.539062 393.417969 137.460938 L 393.417969 135.113281 C 390.898438 138.378906 387.742188 140.671875 382.753906 140.671875 C 375.648438 140.671875 368.996094 135.398438 368.996094 126.511719 L 368.996094 126.398438 C 368.996094 117.453125 375.703125 112.179688 382.753906 112.179688 C 387.859375 112.179688 391.007812 114.53125 393.359375 117.339844 L 393.359375 112.808594 L 400.296875 112.808594 L 400.296875 136.886719 C 400.296875 141.988281 398.980469 145.777344 396.457031 148.296875 C 393.703125 151.050781 389.460938 152.367188 384.015625 152.367188 C 379.027344 152.367188 374.386719 151.105469 370.488281 148.757812 Z M 357.597656 128.117188 L 357.597656 128.003906 C 357.597656 122.671875 353.753906 118.257812 348.308594 118.257812 C 342.746094 118.257812 339.195312 122.613281 339.195312 127.886719 L 339.195312 128.003906 C 339.195312 133.277344 343.035156 137.691406 348.421875 137.691406 C 354.039062 137.691406 357.597656 133.332031 357.597656 128.117188 Z M 332.257812 128.117188 L 332.257812 128.003906 C 332.257812 119.347656 339.136719 112.179688 348.421875 112.179688 C 357.710938 112.179688 364.53125 119.230469 364.53125 127.886719 L 364.53125 128.003906 C 364.53125 136.601562 357.65625 143.769531 348.308594 143.769531 C 339.078125 143.769531 332.257812 136.71875 332.257812 128.117188 Z M 301.925781 102.949219 L 308.980469 102.949219 L 308.980469 136.660156 L 330.074219 136.660156 L 330.074219 143.082031 L 301.925781 143.082031 L 301.925781 102.949219 "/>
<path style=" stroke:none;fill-rule:nonzero;fill:rgb(54.336548%,53.50647%,53.712463%);fill-opacity:1;" d="M 459.238281 112.113281 C 459.855469 112.113281 460.199219 111.792969 460.199219 111.339844 C 460.199219 110.828125 459.855469 110.566406 459.238281 110.566406 L 458.09375 110.566406 L 458.09375 112.113281 Z M 457.1875 109.765625 L 459.320312 109.765625 C 460.359375 109.765625 461.132812 110.273438 461.132812 111.257812 C 461.132812 112.03125 460.679688 112.511719 460.035156 112.699219 L 461.296875 114.484375 L 460.199219 114.484375 L 459.078125 112.859375 L 458.09375 112.859375 L 458.09375 114.484375 L 457.1875 114.484375 Z M 463.105469 112.21875 L 463.105469 112.191406 C 463.105469 109.921875 461.347656 108.058594 459.003906 108.058594 C 456.683594 108.058594 454.890625 109.953125 454.890625 112.21875 L 454.890625 112.246094 C 454.890625 114.515625 456.652344 116.375 459.003906 116.375 C 461.324219 116.375 463.105469 114.484375 463.105469 112.21875 Z M 454.363281 112.246094 L 454.363281 112.21875 C 454.363281 109.6875 456.414062 107.554688 459.003906 107.554688 C 461.617188 107.554688 463.640625 109.65625 463.640625 112.191406 L 463.640625 112.21875 C 463.640625 114.75 461.585938 116.886719 459.003906 116.886719 C 456.386719 116.886719 454.363281 114.78125 454.363281 112.246094 "/>
</g>
</svg>
