<?xml version="1.0" encoding="UTF-8" standalone="no"?>
<!-- Created with Inkscape (http://www.inkscape.org/) -->

<svg
   xmlns:dc="http://purl.org/dc/elements/1.1/"
   xmlns:cc="http://creativecommons.org/ns#"
   xmlns:rdf="http://www.w3.org/1999/02/22-rdf-syntax-ns#"
   xmlns:svg="http://www.w3.org/2000/svg"
   xmlns="http://www.w3.org/2000/svg"
   xmlns:sodipodi="http://sodipodi.sourceforge.net/DTD/sodipodi-0.dtd"
   xmlns:inkscape="http://www.inkscape.org/namespaces/inkscape"
   width="314.28656mm"
   height="95.240311mm"
   viewBox="0 0 314.28656 95.240311"
   version="1.1"
   id="svg8"
   sodipodi:docname="cusu.svg"
   inkscape:version="0.92.4 (5da689c313, 2019-01-14)">
  <defs
     id="defs2" />
  <sodipodi:namedview
     id="base"
     pagecolor="#ffffff"
     bordercolor="#666666"
     borderopacity="1.0"
     inkscape:pageopacity="0.0"
     inkscape:pageshadow="2"
     inkscape:zoom="0.5"
     inkscape:cx="739.92197"
     inkscape:cy="131.30775"
     inkscape:document-units="mm"
     inkscape:current-layer="g12495"
     showgrid="false"
     inkscape:window-width="2560"
     inkscape:window-height="1052"
     inkscape:window-x="0"
     inkscape:window-y="0"
     inkscape:window-maximized="1" />
  <metadata
     id="metadata5">
    <rdf:RDF>
      <cc:Work
         rdf:about="">
        <dc:format>image/svg+xml</dc:format>
        <dc:type
           rdf:resource="http://purl.org/dc/dcmitype/StillImage" />
        <dc:title></dc:title>
      </cc:Work>
    </rdf:RDF>
  </metadata>
  <g
     inkscape:label="Layer 1"
     inkscape:groupmode="layer"
     id="layer1"
     transform="translate(156.97253,-189.65427)">
    <g
       id="g3787"
       transform="translate(2.9232605,42.679603)">
      <g
         id="g12495"
         transform="translate(-109.62227,68.111969)"
         style="fill-rule:nonzero;stroke:#afafaf;stroke-width:0;stroke-miterlimit:4;stroke-dasharray:none;stroke-opacity:1;paint-order:stroke fill markers">
        <path
           style="fill:#31aae4;fill-opacity:0.94117647;fill-rule:nonzero;stroke:#afafaf;stroke-width:0;stroke-miterlimit:4;stroke-dasharray:none;stroke-opacity:1;paint-order:stroke fill markers"
           d="m 111.77931,112.72501 -0.2425,-2.76002 -0.24249,-2.76001 0.25041,-2.85347 0.2504,-2.85347 0.53043,-2.108018 0.53043,-2.108022 c 0,0 1.60927,-4.495382 4.86238,-7.678 v 0 l 1.81443,-2.004719 1.75744,-1.332166 1.75744,-1.332165 2.91042,-1.431193 2.91042,-1.431193 2.24896,-0.635456 c 1.23692,-0.349501 3.1527,-0.787175 4.25727,-0.972609 l 2.00832,-0.337153 0.39275,0.150712 0.39275,0.150712 0.48427,1.81202 c 0.26634,0.996611 1.06744,3.538426 1.78021,5.648478 l 1.29594,3.836459 1.45619,3.042708 c 0.8009,1.67349 1.98519,3.892341 2.63174,4.930781 0.64656,1.038444 1.17556,2.020704 1.17556,2.182814 v 0.29474 h -3.11941 -3.11942 l -1.56662,0.40806 -1.56663,0.40805 -0.86666,0.66103 c -0.47666,0.36357 -1.00315,0.91608 -1.16998,1.22779 l -0.30332,0.56676 -0.0262,0.99763 -0.0262,0.99763 0.78895,0.83136 0.78894,0.83137 1.71979,0.86887 c 0.94589,0.47788 2.8984,1.24565 4.33891,1.70616 l 2.61912,0.83727 4.12776,0.78797 c 9.33717,1.78241 17.75381,4.26449 17.75381,5.23562 0,0.29836 -4.38388,2.74973 -13.03938,7.29133 -4.04296,2.12137 -9.04358,4.8824 -11.1125,6.13564 -2.73332,1.5677 -2.64844,2.46059 -5.53912,1.98804 l -1.77747,-0.29057 -3.5142,-1.16031 c 0,0 -20.48706,-9.596 -20.60334,-19.78146 z m 34.63174,60.61377 -2.83039,-0.23471 -3.25503,-0.66152 c -4.08672,-0.83055 -7.51682,-1.95317 -10.99409,-3.5982 -2.61964,-1.31398 -4.10137,-1.25256 -1.05833,-2.62202 2.07995,-0.93605 3.91949,-1.46548 6.94531,-1.99892 l 2.38125,-0.4198 4.37548,-0.003 4.37547,-0.003 2.90057,0.42636 c 4.40486,0.64747 8.91493,1.72321 12.55785,2.9953 2.70651,0.9451 6.48074,2.46924 6.74467,2.7237 l 0.26237,0.25295 -0.39467,0.25416 c -0.21706,0.13979 -1.51258,0.61594 -2.87893,1.05812 l -2.48428,0.80395 -2.93968,0.49902 -2.93969,0.49902 -3.96875,0.13124 -3.96875,0.13123 -2.83038,-0.23471 z m -18.502,-10.06524 c -14.14003,15.28993 -7.07001,7.64496 0,0 z m 74.09864,2.61343 -2.4923,-1.64191 -2.39017,-2.39299 -2.39018,-2.39299 -1.49462,-2.24932 c -0.82204,-1.23713 -1.99443,-3.29096 -2.60531,-4.56407 -0.61088,-1.2731 -1.19397,-2.31473 -1.29575,-2.31473 -0.10179,0 -0.37335,0.86764 -0.60348,1.92809 -0.70221,3.23587 -2.71056,7.82791 -3.2051,7.32837 -0.6966,-0.70363 -4.36918,-32.1367 -3.81906,-32.68681 0.22215,-0.22215 2.21563,1.95815 3.45244,3.77597 l 1.11894,1.64458 0.26459,-0.079 0.26458,-0.079 0.0703,-7.32025 0.0703,-7.32026 4.2953,0.007 c 6.89121,0.0111 17.6823,0.79254 18.78123,1.36008 l 0.46302,0.23913 0.009,8.78809 0.009,8.78809 0.37543,2.10723 0.37544,2.10724 0.96682,1.95624 0.96683,1.95623 1.49621,1.49278 1.49622,1.49278 1.58406,0.83762 1.58406,0.83762 1.7198,0.46021 1.71979,0.46022 h 2.24896 2.24895 l 1.7198,-0.46022 1.71979,-0.46021 1.52963,-0.81275 1.52961,-0.81275 1.56835,-1.67656 1.56834,-1.67657 0.91691,-1.92018 0.91689,-1.92018 0.28461,-1.56995 0.28462,-1.56995 0.004,-17.74463 0.004,-17.74464 0.22157,-0.34944 0.22156,-0.34944 1.56033,0.27684 c 0.85817,0.15226 3.2272,0.41489 5.26449,0.58361 l 3.70417,0.30678 5.82083,-0.17281 c 3.20146,-0.095 6.0964,-0.24607 6.43318,-0.33563 l 0.61236,-0.16283 -0.10203,19.41604 -0.10202,19.41605 -0.26469,0.79375 -0.26469,0.79375 -0.64251,0.18635 c -0.35338,0.1025 -2.94741,0.55874 -5.76451,1.01386 l -5.12196,0.8275 -5.19679,1.29063 -5.19676,1.29062 -4.27479,1.45271 -4.27477,1.4527 -3.6603,1.62149 c -8.34112,3.69508 -15.75855,8.7072 -21.08633,14.2485 l -1.81062,1.88334 H 204.95786 204.5 Z m 57.94655,-25.98859 0.31406,-0.37841 -0.0832,-1.01065 -0.0832,-1.01065 -1.01065,-0.0832 -1.01066,-0.0832 -0.37841,0.31405 -0.3784,0.31406 v 0.84072 0.84073 l 0.3175,0.3175 0.3175,0.3175 h 0.84074 0.84071 z m -2.55122,-3.75454 c 1.61256,-0.81656 2.42917,-1.90097 2.85809,-3.79538 l 0.20759,-0.91688 -0.26519,-1.23656 -0.2652,-1.23657 -0.9263,-1.08217 -0.92628,-1.08217 -1.32244,-0.39272 -1.32242,-0.39272 -0.84452,0.1608 c -0.46448,0.0884 -1.28095,0.37903 -1.81441,0.64577 l -0.96991,0.48499 -0.51096,0.73359 c -0.67826,0.97375 -1.12109,2.32757 -1.12109,3.42741 v 0.89506 l 0.4109,0.98369 c 0.51017,1.22125 1.58821,2.39182 2.63181,2.85764 l 0.79375,0.35429 1.26992,0.0103 1.26989,0.0103 0.84677,-0.42878 z m -3.56359,-2.62173 -0.70617,-0.3835 -0.31166,-0.94439 -0.31168,-0.94438 0.32751,-0.79067 0.3275,-0.79067 0.74334,-0.38439 0.74335,-0.3844 h 0.78658 0.78658 l 0.81407,0.68498 0.81404,0.68498 v 0.91991 0.91992 l -0.27241,0.50903 -0.27244,0.50903 -0.77277,0.39962 c -0.95695,0.49486 -1.77811,0.49332 -2.69584,-0.005 z m 6.26242,-10.17865 v -1.19063 l -1.32291,-0.13229 -1.32292,-0.13229 v -0.59874 -0.59874 l 1.32292,-0.99796 1.32291,-0.99796 0.0806,-1.24757 0.0806,-1.24757 h -0.42984 -0.42984 l -1.15369,0.79375 c -1.39957,0.96292 -1.24669,0.96156 -2.18879,0.0194 l -0.77431,-0.7743 -0.95435,-0.17903 -0.95432,-0.17904 -1.0037,0.49031 -1.0037,0.49031 -0.46259,0.92604 -0.46263,0.92604 v 2.80017 2.80018 l 0.1823,0.18229 0.18227,0.18229 4.64637,-0.0721 4.64635,-0.072 v -1.19062 z m -7.16875,-1.68953 c -0.0774,-0.20163 -0.1034,-0.88624 -0.0578,-1.52135 l 0.0828,-1.15475 h 0.91615 0.91612 l 0.24151,0.84206 0.24151,0.84206 -0.1705,0.6793 -0.17049,0.67929 h -0.9293 -0.92932 z m 4.32329,-7.1841 c 1.26908,-0.53025 1.85812,-1.08239 2.5032,-2.34634 l 0.52747,-1.03351 v -1.54952 -1.54953 l -0.62177,-1.25342 -0.62177,-1.25343 h -2.24896 -2.24896 v 2.11667 2.11667 l 0.60987,0.0864 0.60989,0.0865 0.38229,-0.31729 0.38233,-0.31729 v -0.62906 -0.62907 h 0.51985 0.51985 l 0.29814,0.55703 0.2981,0.55703 -0.16057,0.85587 -0.16055,0.85586 -0.67874,0.63763 -0.67871,0.63763 h -1.19102 -1.19102 l -0.77203,-0.86407 -0.77205,-0.86407 v -0.66579 c 0,-0.36618 0.17081,-1.07462 0.37962,-1.57433 l 0.3796,-0.90854 -0.79888,-0.67223 -0.79889,-0.67222 -0.26974,0.1667 c -0.14835,0.0917 -0.49284,0.65803 -0.76554,1.25854 l -0.49581,1.09184 v 1.19062 1.19063 l 0.48845,1.05833 0.48847,1.05834 0.63021,0.56314 c 0.34661,0.30972 0.9874,0.75144 1.42397,0.98159 l 0.79375,0.41845 1.13297,0.0106 1.13297,0.0106 0.97401,-0.40697 z"
           id="path12499"
           inkscape:connector-curvature="0"
           sodipodi:nodetypes="cccccccccccccccsccccccccsccccccccccccccccsscccccccccccccccscccccccccccccccccccscccsccccccccccccccccccccccccccccccccccccsccccccccccccccccccccccccccccccccccccccccccccccccccscccccccccccccccccccccccccccccccccccccccccccccccccccccccccccccccccccccscccccccccccccccccccccccccccscccccccccccccccccc" />
        <path
           style="fill:#1270bb;fill-opacity:1;fill-rule:nonzero;stroke:none;stroke-width:0;stroke-miterlimit:4;stroke-dasharray:none;stroke-opacity:1;paint-order:stroke fill markers"
           d="m -6.114198,173.97251 c -21.517135,-1.95215 -41.110615,-19.34463 -43.569211,-41.11251 -2.277869,-12.79789 2.217456,-26.452 10.403244,-36.412471 13.27851,-15.846133 36.355467,-21.774937 55.677201,-14.516698 7.243552,2.449847 13.349033,7.222471 18.923409,12.187597 0,0 -1.16161,-12.928544 1.781268,-13.413841 h 21.354701 c 3.119247,2.500718 0.776414,7.524444 1.533144,11.11644 0.197311,15.678053 -0.08554,31.425713 0.41166,47.060313 1.757847,11.67058 17.979127,16.48922 26.017844,8.10136 7.125323,-6.60115 4.098201,-17.07855 4.777518,-25.65979 l 0.122369,-39.247936 c 2.729187,-2.889116 7.835117,-0.943604 11.474641,-1.63497 3.93656,0.327047 8.14802,-0.383724 11.75939,0.728429 2.36469,2.840038 0.46908,7.444754 1.08295,11.010009 -1.67204,4.437572 -4.01236,8.957108 -3.81244,13.968198 -0.4519,5.56298 1.77815,11.08699 4.66122,15.85246 -0.3136,11.93684 0.41002,24.92962 -7.01955,35.25075 -9.503104,15.06503 -30.202463,19.6804 -46.604955,14.93089 -9.776938,-2.62086 -18.601396,-9.19783 -23.017256,-18.45117 -4.021658,2.38315 -6.861439,7.88091 -11.157094,10.67688 -9.915168,7.44633 -22.6449547,10.3756 -34.800053,9.56606 z m 7.3178279,-23.18086 c 8.3803787,-0.71299 15.3667541,-6.42642 19.8437501,-13.25511 5.30345,-0.71436 9.839453,3.85035 15.025479,4.28678 -0.95841,-10.01272 0.289835,-20.38149 -0.67187,-30.23536 -3.478901,0.0471 -7.737463,2.85683 -11.513751,3.95768 -5.368388,1.00815 -6.114937,-6.41259 -10.32949,-8.41524 -9.2720687,-7.805524 -24.841758,-6.52802 -32.452862,3.06989 -10.065686,10.58716 -7.578614,29.84454 5.331697,37.2182 4.2759477,2.90477 9.651253,4.09894 14.7670469,3.37316 z M 221.75596,173.00889 c -4.34502,-0.61047 -9.20108,-1.69475 -12.72212,-3.99357 13.30794,-15.14272 34.1447,-21.09926 53.50592,-23.48781 -1.75431,14.48987 -14.44448,25.85172 -28.73627,27.36091 -3.96957,0.32986 -8.07527,0.56412 -12.04753,0.12047 z m -52.54191,-5.15413 c -14.28166,-5.68201 -31.4031,-9.12181 -45.80961,-1.93356 -3.09666,-2.65831 -8.45123,-4.13427 -9.6206,-8.14778 1.93476,-5.64591 7.45654,-10.23179 10.58091,-15.49044 7.4613,-1.39796 13.01764,7.6257 20.91952,7.79836 5.47173,0.93896 12.7158,2.00283 16.8362,-2.46488 3.46782,-4.70191 -3.04025,-7.95158 -7.06163,-7.89196 -6.68423,-0.65792 -14.46641,-0.8502 -5.27832,-5.99444 7.25634,-3.43653 14.6181,-8.665 21.8484,-11.26154 10.31538,2.45676 7.81906,4.63291 9.30478,14.54308 4.18294,28.39883 5.34375,22.88185 -1.91427,28.41406 -2.93414,1.78961 -5.84218,4.76281 -9.80538,2.4291 z m 24.59087,-52.62145 c -4.20483,-0.65564 -6.85205,2.28934 -6.20233,-4.47113 V 82.251382 c 2.74587,-3.14851 8.28015,-1.371901 12.03855,-2.075962 3.61514,0.697612 7.8923,-0.951379 10.67065,1.766413 0.72124,10.885052 -0.17907,22.980327 0.0289,34.077967 -1.14787,-0.126 -15.38846,-0.65681 -16.53579,-0.78649 z m -18.88191,-5.84176 c -4.90364,-3.52774 -20.1117,-5.74833 -25.32724,-7.72783 -2.7674,-5.926659 -8.66313,-13.787372 -7.74836,-21.051935 12.72502,-0.752098 31.9733,3.147156 41.58443,11.448407 -1.23612,8.239908 -3.50454,16.487328 -8.50883,17.331358 z m 64.59508,-11.088518 c -0.25958,-7.555128 -1.06515,-12.417454 -0.0842,-17.37307 15.47343,-0.04102 15.51926,0.268095 24.33698,0.35586 0.73513,5.31831 -0.46167,12.285187 -0.21188,17.829004 0,0 -10.77687,1.965174 -24.04091,-0.811794 z"
           id="path12497"
           inkscape:connector-curvature="0"
           sodipodi:nodetypes="ccccccccccccccccccccccccccccccccccccccccccccccccccccccccccccccccccc" />
      </g>
    </g>
  </g>
</svg>
