<svg xmlns="http://www.w3.org/2000/svg" viewBox="0 0 887 270">
  <defs/>
  <path fill="#1770b8" d="M818.1 16.5c0-7 2.9-10 9.9-10 15.6 0 31.3.1 46.9-.1 4.8-.1 8.1 1.6 10.1 5.9v46.2c-14.8 1-29.7 1.4-44.6.7-7.4-.4-15.3-1.1-22.3-2.5M469.4 39.8v-25c-.1-6.6-3.1-9.4-9.7-9.5h-50.3c-7.9 0-10.4 2.5-10.4 10.5v134.5c0 4.3-.1 8.7-.4 13-1.6 26.4-22.2 43.8-48.4 40.4-14.7-1.9-26-9.3-32.6-22.9-3.4-7-4.5-14.4-4.6-22-.1-15.9 0-31.8 0-47.7V14.6c0-5.8-3-9.2-8.4-9.2-17.9-.1-35.8-.1-53.6 0-5 0-8.1 3.1-8.4 8.1-.1 1.4 0 2.7 0 4.1v27.2c-1.1-1-1.7-1.5-2.3-2.1-3.8-4.3-8-8.1-12.4-11.8C206.4 13.3 181.6 4 154 1.6 125.9-.8 99 3 74 16.6 30.7 40.1 6.1 76.2 1.3 125.5c-.3 7.5-.5 12.7 0 19.5 1.3 18.7 6.1 36.5 15.3 52.7 14.5 25.7 33 41.3 43.6 48.5 28.1 19 55.8 22.9 68.5 23.3 8.5.3 11.7.4 19.4 0 7.5-.4 17.2-1.4 28.3-4.3 18-4.6 30.4-11.6 33.4-13.4 16.2-9.3 30.2-21.9 42.1-37.6.6-.8.9-2.1 2.4-2.1 12.9 25.6 33.4 42.4 60.5 51.1 25.7 8.2 51.8 8.4 77.7 1.4 20.9-5.6 38.8-16.4 52.6-33.2 16.3-19.9 23.2-43.2 24-68.5M234.7 175c-7.5-3-15-5.9-22.5-8.9-6.6-2.6-10.7-1.3-14.7 4.6-10.4 15.6-24.4 26.2-42.7 30.8-38.7 9.7-70.5-16.8-79.2-46.5-10.5-36 10.4-75.7 46.2-85.5 24.4-6.7 51.7-.4 70.2 23.2 1.8 2.2 3.4 4.6 5 6.9 4 6 8.5 7.5 15.3 4.8 9-3.5 18-7.1 27-10.7.9-.4 1.8-.7 3.1-1.1.8 28.9-.9 57.1 1.2 85.8-3-1.1-6-2.3-8.9-3.4zm310.8-8.1c25.1-17.3 53.2-28.8 79.1-44.6 7.8 3.7 14.9 8.3 21.1 14.1 1.4 32.1 7.5 63.4 11.3 95.3-6.9 11-16.6 18.9-28.4 24.5-9.1-3.5-18-7.4-27.2-10.3-21.9-7-44.2-10.9-67.3-10-14.9.5-28.9 4.1-43.2 11.3-9.3-5.2-18.4-11.2-26.5-18.5-2.8-2.5-2.5-6.1-1.2-9.4.3-.8.9-1.5 1.3-2.2 8.3-11.9 16.5-23.9 24.8-35.7 3.4-4.9 8.2-5.8 13.2-2.6 14.7 9.3 30.1 17.2 47.1 21.7 12.3 3.2 24.7 4.1 37.2 1.2 3.9-.9 7.6-2.4 10.5-5.3 6.3-6.2 5-14.7-2.8-18.6-5.7-2.9-12-4-18.2-4.8-10.4-1.7-20.5-4.2-30.8-6.1zm184.3 88.7c6.1-7.3 12.8-13.6 20-19.3 22.4-17.8 48-29 75.2-37 18.6-5.4 37.6-9 56.7-11.6.3 0 .7.1 1.4.1-1.4 9.7-4.2 18.8-8.4 27.5-13.7 28.3-36.9 44.1-67 50.1-24.2 4.8-48.1 3.2-71.1-6.6-2.1-.9-4.3-2.1-6.8-3.2zM568.6 67.3C554.8 48.7 548 27.2 542 4.9c5-1 9.8-1.4 14.6-1.6 24-.9 47.2 2.2 69.2 12.6C636.5 21 646.6 27 656 34.1c5.6 4.2 6.3 8.6 2.2 14.4-8.2 11.8-16.5 23.6-24.8 35.3-3.5 4.9-7.8 5.8-12.8 2.6-15.9-9.9-32.9-17.2-52-19.1zm168.2 37.5c-22.3-3.1-44.2-3.8-66-3.8-1.1-1.2-.6-2.5-.6-3.7V15.4c0-7.2 2.7-9.8 9.9-9.8h47.3c6.7 0 9.5 2.8 9.5 9.5v86c-.1 1-.1 2.1-.1 3.7z"/>
  <path fill="#33a9e1" d="M818.1 65.8v96.5c-.1 27.3-20.5 45.3-46.9 41.3-14.1-2.1-24.6-9.5-30.5-22.7-2.8-6.2-3.8-12.8-3.8-19.6-.1-14 0-28 0-42.1 0-1.3.3-2.7-.3-4-8.4-2.7-58-5.1-66.2-3.5v42.7c-4.6-6.4-8.9-12.6-15.2-18.1 1.3 32.2 7.3 63.1 11.2 95.2 6.2-9.5 9.1-19.1 10.7-29.5 8.8 22.5 23.5 39.7 45 50.9 15.8-18.3 34.8-31.8 56.1-42.2 28.6-14.1 59.1-22 90.4-27.2l15.8-2.6c.3-2.4.6-7.1.7-8.3.1-1.7.1-5.8.1-7.3v-98c-22.5 2.3-44.7 2.3-67.1-1.5zm-348.7 57.6c-1.9-4.6-5-8.5-6.7-13.2-2.8-7.3-4.4-14.8-4.6-22.7-.2-9.9.1-19.7 2.9-29.3 1.6-5.3 3.6-10.2 6.5-14.9.7-1.1 2.7-3.9 2.7-3.9 3.2-4.2 5.2-7.2 8.7-10.5 13-12.2 28.7-18.8 46-21.9 2.5-.5 5.1-1.1 7.9-.7 2.9 10.9 6.1 21.7 10.3 32.1 4.2 10.4 9.1 20.3 16.3 29.9-5.5-.4-10.3-.2-15.1-.1-3.5.1-6.9.6-10.3 1.6-2.4.7-4.6 1.8-6.4 3.6-4.4 4.3-4.2 9.8.6 13.5C533.5 91 539.8 93 546 95c11 3.6 22.4 5.1 33.7 7.5 11.2 2.3 22.2 5.2 32.7 9.7 1.1.5 2.2 1.1 4 1.9-5.5 3.1-10.4 6-15.5 8.8-17.5 9.6-35.6 18.1-52.7 28.4-3.2 1.9-6.4 3.8-9.4 5.9-1.6 1.1-3.1 1.5-4.9 1.1-16.2-3.5-31.7-8.8-45.9-17.7-6.4-4-11.8-9.1-16.5-14.9-.5-.9-1-1.9-2.1-2.3zm150.1 136.1c-26.8 14.1-84 13.6-119.6-7.8 0-1.3 1.2-1.4 2-1.8 11-5.5 22.9-7.9 35.1-8.4 28.6-1.2 55.4 5.9 81.4 17.1.5.2 1.1.3 1.1.9z"/>
  <path fill="#fff" d="M862.4 123.9c-.1-3.4.4-6.7-1.4-8.8-1.6-1.7-3.9-1.5-5 1.6-.5 2.5-.3 4.5-.1 7.2h6.5zm14.1 7.4h-27.4c-.1-5.6-.5-11.1.3-16.4.5-3.8 2.7-6.6 6.7-7.6 3.9-.9 7.1.2 9.6 3.3.5.6.9 1.1 1.5 2 3.1-2 6-4 9.3-6.2v8.5c-2.5 1.7-5.5 4-7.9 5.6v3.2l8 .2-.1 7.4zm-13.7 33.9c-8 0-14.4-6.6-14.4-14.9s6.5-15 14.5-14.8c7.6.1 14.4 6.8 14.2 14.9-.1 9.9-7.4 14.9-14.3 14.8zm-.1-21.8c-4.3 0-7.4 3.1-7.4 7.1 0 4 3.4 7.1 7.5 7.1 4.3-.1 7.4-3.1 7.4-7.2 0-4.2-3-7.1-7.5-7zm-2.2-66.1h12.2c6 7 5.9 17.2-.1 22.9-5.4 5.2-14.1 5.1-19.5-.1-5.9-5.6-6.3-15-.6-21.7l5 3.9c-2.4 4.3-4.1 8.7.8 12.5 2.6 2 6.9 1.9 9.4 0 2.9-2.2 3.6-6.3 1.9-10.7h-3.5c-.1 1.4 0 3.6-.1 5.1h-5.7c0 .1.1-7.6.2-11.9zm8.4 90.3h7.7v7.7h-7.7z"/>
</svg>