<svg width="488" height="93" viewBox="0 0 488 93" xmlns="http://www.w3.org/2000/svg"><title>Artboard</title><g fill="none" fill-rule="evenodd"><path d="M28.57 60.492c.574-.127.939-.702.84-1.284-.128-.598-.707-1.006-1.29-.855a1.042 1.042 0 0 0-.855 1.245c.122.615.698 1.034 1.305.894zm22.197-4.634c.574-.132.936-.701.84-1.284-.132-.608-.715-1.015-1.292-.862-.613.097-.968.688-.855 1.255.116.602.7 1.018 1.307.891zm-19.533 9.544a1.56 1.56 0 0 0 .275-2.152c-.55-.635-1.496-.752-2.154-.253-.638.487-.758 1.453-.232 2.113.496.655 1.458.818 2.111.292zm18.144-14.244c.682-.556.76-1.497.272-2.152-.545-.631-1.495-.747-2.145-.249a1.498 1.498 0 0 0-.232 2.113c.496.656 1.456.818 2.105.288zM37.195 68.839c.428-1.032-.139-2.252-1.174-2.622-1.092-.425-2.231.11-2.677 1.215-.406 1.039.149 2.21 1.221 2.623 1.077.356 2.231-.158 2.63-1.216zm8.245-22.012c.408-1.02-.14-2.246-1.184-2.614-1.088-.419-2.222.12-2.678 1.214-.41 1.043.157 2.213 1.216 2.625 1.081.349 2.238-.15 2.646-1.225zm3.682 12.846c-.184.841.233 1.629 1.046 1.845.807.221 1.638-.291 1.85-1.062a1.475 1.475 0 0 0-1.073-1.803 1.472 1.472 0 0 0-1.823 1.02zm-3.033 4.168a2.291 2.291 0 0 0 .016 3.178c.888.848 2.282.833 3.084-.008.915-.86.933-2.304.056-3.141a2.24 2.24 0 0 0-3.156-.029zm-4.657 2.443c-1.201.299-2.034 1.538-1.737 2.75.262 1.263 1.533 2.059 2.77 1.784 1.263-.259 2.027-1.532 1.775-2.773-.302-1.268-1.533-2.011-2.808-1.761zM26.785 53.709c-.228.826.241 1.615 1.071 1.866.764.2 1.59-.278 1.798-1.065.231-.801-.279-1.606-1.052-1.823a1.484 1.484 0 0 0-1.817 1.022zm2.771-6.522c-.834.886-.876 2.275-.012 3.13.867.877 2.259.884 3.169 0 .845-.855.845-2.244-.029-3.13a2.228 2.228 0 0 0-3.128 0zm6.786-3.792a2.328 2.328 0 0 0-1.819 2.735c.321 1.249 1.534 2.049 2.808 1.755a2.313 2.313 0 0 0 1.751-2.753c-.287-1.232-1.532-2.035-2.74-1.737zm14.826 27.86c.669.647 1.66.669 2.295-.006.64-.593.676-1.59.009-2.226-.612-.662-1.669-.653-2.276-.041-.627.635-.635 1.674-.028 2.273zM25.144 45.074c.647.638 1.678.667 2.305-.008.609-.621.632-1.649-.007-2.273a1.642 1.642 0 0 0-2.287-.004 1.656 1.656 0 0 0-.011 2.285zm30.594 20.554c.835.36 1.778-.05 2.129-.864a1.629 1.629 0 0 0-.866-2.113 1.546 1.546 0 0 0-2.087.864c-.379.839.049 1.797.824 2.113zm2.296-6.332c1.081 0 1.954-.846 1.958-1.917a1.922 1.922 0 0 0-1.892-1.97c-1.049-.013-1.961.813-1.986 1.897a2.023 2.023 0 0 0 1.92 1.99zm-.031-6.856c1.29-.485 1.906-1.937 1.377-3.235-.484-1.254-1.906-1.925-3.163-1.422-1.32.517-1.965 1.946-1.46 3.228a2.502 2.502 0 0 0 3.246 1.429zM21.62 51.406c.848.318 1.783-.066 2.132-.889a1.653 1.653 0 0 0-.862-2.124c-.827-.35-1.802.064-2.12.886-.34.813.045 1.762.85 2.127zm-1.083 7.238c1.042.006 1.93-.851 1.954-1.921.018-1.048-.868-1.932-1.879-1.949-1.088-.023-1.971.808-1.994 1.882a1.954 1.954 0 0 0 1.919 1.988zm1.905 7.616a2.482 2.482 0 0 0 1.414-3.256 2.43 2.43 0 0 0-3.213-1.389 2.48 2.48 0 0 0-1.422 3.21c.51 1.278 1.925 1.937 3.221 1.435zm23.235 6.251c-.875.358-1.336 1.355-.946 2.269.367.895 1.404 1.337 2.285.983.892-.382 1.34-1.382.935-2.306-.342-.904-1.385-1.331-2.274-.946zm-6.423.91c-1.283-.021-2.336 1.051-2.364 2.347a2.413 2.413 0 0 0 2.346 2.383c1.301-.029 2.358-1.047 2.387-2.353.02-1.284-1.044-2.343-2.369-2.377zm-6.058-1.214c-1.374-.578-2.931.124-3.503 1.504-.529 1.366.151 2.943 1.514 3.468 1.34.544 2.914-.069 3.461-1.45a2.71 2.71 0 0 0-1.472-3.522zm-5.319-3.836c-1.137-1.175-3.031-1.173-4.177-.027-1.192 1.183-1.205 3.049-.051 4.214 1.186 1.161 3.061 1.17 4.228.031a2.973 2.973 0 0 0 0-4.218zm3.749-30.065a1.747 1.747 0 0 0-.968 2.267c.401.913 1.415 1.337 2.313.991a1.772 1.772 0 0 0 .931-2.311c-.357-.915-1.392-1.319-2.276-.947zm7.773-2.405a2.38 2.38 0 0 0-2.377 2.377 2.386 2.386 0 0 0 2.368 2.318c1.27.023 2.358-1.047 2.333-2.343.025-1.248-1.039-2.335-2.324-2.352zm8.065.971c-1.354-.554-2.92.123-3.492 1.459-.543 1.349.131 2.972 1.473 3.507 1.403.551 2.948-.118 3.491-1.493.565-1.371-.106-2.909-1.472-3.473zm7.488 4.629c-1.184-1.168-3.063-1.191-4.228.015-1.153 1.108-1.153 2.998 0 4.153a2.972 2.972 0 0 0 4.212.029c1.178-1.184 1.205-3.035.016-4.197zm.316 36.387a1.422 1.422 0 0 0 2.005.166c.599-.496.674-1.4.156-1.988a1.435 1.435 0 0 0-1.98-.157c-.597.509-.669 1.402-.181 1.979zm4.306-3.871c.724.534 1.753.39 2.284-.347a1.634 1.634 0 0 0-.326-2.281c-.748-.538-1.774-.394-2.295.337a1.643 1.643 0 0 0 .337 2.291zm3.746-5.291a1.899 1.899 0 0 0 2.507-1.078 1.918 1.918 0 0 0-1.071-2.513 1.922 1.922 0 0 0-2.51 1.079 1.952 1.952 0 0 0 1.074 2.512zm2.538-6.89c1.112.134 2.131-.694 2.249-1.802a2.04 2.04 0 0 0-1.811-2.253c-1.137-.109-2.143.703-2.26 1.81-.121 1.113.7 2.144 1.822 2.245zm.513-7.152a2.475 2.475 0 0 0 2.008-2.909c-.222-1.352-1.538-2.264-2.908-2.015-1.358.262-2.268 1.546-2.015 2.915.265 1.358 1.548 2.274 2.915 2.009zM21.273 37.941c.535.585 1.411.667 1.994.17.6-.528.669-1.413.177-1.998-.506-.577-1.415-.657-1.996-.154a1.424 1.424 0 0 0-.175 1.982zm-4.073 4.69a1.616 1.616 0 0 0 2.281-.358 1.59 1.59 0 0 0-.328-2.257 1.616 1.616 0 0 0-2.282.328 1.637 1.637 0 0 0 .329 2.287zm-3.249 6.247a1.955 1.955 0 0 0 2.529-1.086 1.932 1.932 0 0 0-1.081-2.508 1.947 1.947 0 0 0-2.53 1.079 1.962 1.962 0 0 0 1.082 2.515zm-1.52 7.355c1.118.138 2.129-.704 2.275-1.819a2.085 2.085 0 0 0-1.862-2.242c-1.105-.12-2.114.699-2.235 1.811a2.034 2.034 0 0 0 1.822 2.25zm.809 8.022a2.476 2.476 0 0 0 2.021-2.9c-.246-1.364-1.537-2.294-2.913-2.021a2.502 2.502 0 0 0-2.019 2.909c.249 1.343 1.541 2.273 2.911 2.012zm38.104 14.76c-.583.312-.789 1.064-.474 1.644.317.585 1.05.795 1.641.483.579-.313.814-1.049.486-1.633a1.215 1.215 0 0 0-1.653-.494zm-4.828 1.768a1.421 1.421 0 0 0-.946 1.743 1.43 1.43 0 0 0 1.762.963c.733-.234 1.174-1.02.941-1.774-.224-.728-1.01-1.143-1.757-.932zm-5.583.906c-.907.044-1.58.833-1.52 1.729.074.906.837 1.586 1.739 1.521a1.622 1.622 0 0 0 1.515-1.737c-.033-.896-.835-1.567-1.734-1.513zm-6.221-.632a2.123 2.123 0 0 0-2.486 1.66 2.127 2.127 0 0 0 1.666 2.502 2.118 2.118 0 0 0 2.497-1.688 2.116 2.116 0 0 0-1.677-2.474zm-6.364-2.325a2.53 2.53 0 0 0-3.364 1.125 2.55 2.55 0 0 0 1.097 3.368 2.546 2.546 0 0 0 3.385-1.138c.617-1.213.112-2.726-1.118-3.355zm-5.387-4.17c-1.196-1.104-3.055-1.042-4.15.136a2.94 2.94 0 0 0 .132 4.154c1.187 1.112 3.056 1.057 4.159-.121 1.11-1.213 1.057-3.065-.141-4.169zm-4.419-6.234a3.192 3.192 0 0 0-4.323-1.267 3.175 3.175 0 0 0-1.25 4.313 3.188 3.188 0 0 0 4.307 1.289 3.207 3.207 0 0 0 1.266-4.335zm7.669-35.46a1.205 1.205 0 0 0-.491 1.643c.319.577 1.054.816 1.648.484.58-.322.804-1.066.492-1.649a1.217 1.217 0 0 0-1.649-.478zm5.18-2.328c-.738.213-1.146 1.001-.933 1.751.234.742 1.008 1.169 1.744.944a1.402 1.402 0 0 0 .937-1.76c-.211-.743-.988-1.16-1.748-.935zm6.163-1.47a1.644 1.644 0 0 0-1.518 1.727 1.654 1.654 0 0 0 1.742 1.533c.906-.053 1.58-.846 1.525-1.749a1.64 1.64 0 0 0-1.749-1.511zm7.272-.254a2.106 2.106 0 0 0-2.495 1.672 2.116 2.116 0 0 0 1.675 2.475 2.127 2.127 0 0 0 2.494-1.666 2.126 2.126 0 0 0-1.674-2.481zm7.571 1.837c-1.221-.614-2.725-.116-3.348 1.161a2.507 2.507 0 0 0 1.137 3.341c1.243.601 2.754.117 3.355-1.149a2.502 2.502 0 0 0-1.144-3.353zm7.402 4.492c-1.196-1.119-3.057-1.061-4.159.128-1.092 1.195-1.05 3.059.146 4.171 1.181 1.097 3.056 1.043 4.161-.141 1.102-1.192 1.049-3.061-.148-4.158zm5.96 7.492a3.209 3.209 0 0 0-4.323-1.283c-1.542.852-2.114 2.785-1.276 4.316a3.207 3.207 0 0 0 4.323 1.302 3.206 3.206 0 0 0 1.276-4.335zM44.593 91.003a1.832 1.832 0 0 0 2.185 1.433 1.842 1.842 0 0 0 1.427-2.181c-.201-.992-1.194-1.626-2.183-1.426a1.85 1.85 0 0 0-1.429 2.174zm7.363-1.778a2.148 2.148 0 0 0 2.847 1.058 2.16 2.16 0 0 0 1.042-2.862 2.135 2.135 0 0 0-2.849-1.035 2.16 2.16 0 0 0-1.04 2.839zm7.541-3.658a2.61 2.61 0 0 0 3.717.349 2.626 2.626 0 0 0 .344-3.718 2.608 2.608 0 0 0-3.701-.338 2.64 2.64 0 0 0-.36 3.707zm7.101-6.085c1.374.964 3.301.609 4.254-.769a3.066 3.066 0 0 0-.775-4.257c-1.416-.965-3.304-.626-4.266.776-.941 1.379-.611 3.31.787 4.25zm5.186-7.907c1.872.631 3.919-.412 4.551-2.303.622-1.866-.399-3.913-2.298-4.55a3.599 3.599 0 0 0-4.54 2.292 3.607 3.607 0 0 0 2.287 4.561zM30.515 23.742a1.84 1.84 0 0 0 2.188 1.437 1.838 1.838 0 0 0 1.428-2.181 1.85 1.85 0 0 0-2.18-1.422 1.826 1.826 0 0 0-1.436 2.166zm-7.642 2.854a2.133 2.133 0 0 0 2.85 1.026c1.078-.482 1.535-1.757 1.043-2.828a2.171 2.171 0 0 0-2.843-1.05 2.165 2.165 0 0 0-1.05 2.852zm-7.722 5.206a2.624 2.624 0 0 0 3.723.344 2.623 2.623 0 0 0 .356-3.701 2.622 2.622 0 0 0-3.72-.354 2.625 2.625 0 0 0-.359 3.711zm-6.504 7.762c1.39.969 3.292.607 4.275-.783a3.081 3.081 0 0 0-.799-4.257 3.059 3.059 0 0 0-4.251.773 3.069 3.069 0 0 0 .775 4.267zm-3.961 9.73c1.881.63 3.918-.405 4.546-2.287a3.601 3.601 0 0 0-2.296-4.549 3.599 3.599 0 0 0-4.548 2.287c-.612 1.871.396 3.924 2.298 4.549zm34.683 40.535a1.59 1.59 0 0 0-1.585 1.587c0 .878.705 1.577 1.585 1.589a1.596 1.596 0 0 0 1.584-1.589c0-.865-.712-1.587-1.584-1.587zm-6.66-1c-.996-.2-1.986.443-2.185 1.433a1.842 1.842 0 0 0 1.427 2.18 1.835 1.835 0 0 0 2.18-1.429 1.854 1.854 0 0 0-1.422-2.184zm-6.996-2.444a2.114 2.114 0 0 0-2.833 1.028 2.15 2.15 0 0 0 1.043 2.849 2.137 2.137 0 0 0 2.843-1.05c.492-1.052.017-2.338-1.053-2.827zm-6.841-4.525a2.644 2.644 0 0 0-3.721.348 2.62 2.62 0 0 0 .35 3.709 2.62 2.62 0 0 0 3.725-.35 2.634 2.634 0 0 0-.354-3.707zm-5.961-6.628a3.061 3.061 0 0 0-4.256-.766c-1.388.945-1.74 2.856-.798 4.256a3.098 3.098 0 0 0 4.275.764 3.054 3.054 0 0 0 .779-4.254zm-3.673-8.226c-.639-1.886-2.673-2.91-4.544-2.289a3.609 3.609 0 0 0-2.306 4.55 3.601 3.601 0 0 0 4.553 2.297 3.616 3.616 0 0 0 2.297-4.558zM8.318 57a4.162 4.162 0 0 0-4.163-4.16A4.165 4.165 0 0 0 0 57c0 2.31 1.863 4.182 4.155 4.182A4.167 4.167 0 0 0 8.318 57zM39.35 21.004a1.574 1.574 0 0 0-1.578 1.581c0 .875.703 1.589 1.578 1.589.879 0 1.584-.714 1.584-1.589 0-.873-.705-1.586-1.584-1.581zm7.43.577a1.831 1.831 0 0 0-2.18 1.426 1.838 1.838 0 0 0 1.422 2.172 1.828 1.828 0 0 0 2.187-1.431 1.829 1.829 0 0 0-1.429-2.167zm8.017 2.163a2.17 2.17 0 0 0-2.841 1.041c-.483 1.061-.024 2.346 1.04 2.837a2.126 2.126 0 0 0 2.849-1.033 2.138 2.138 0 0 0-1.048-2.845zm8.41 4.351a2.624 2.624 0 0 0-3.714.356 2.63 2.63 0 0 0 .356 3.71c1.126.935 2.797.773 3.708-.351a2.624 2.624 0 0 0-.35-3.715zm7.637 7.202a3.056 3.056 0 0 0-4.257-.766 3.065 3.065 0 0 0-.782 4.246 3.045 3.045 0 0 0 4.266.787c1.393-.972 1.733-2.853.773-4.267zm5.491 9.447c-.638-1.899-2.679-2.921-4.551-2.295A3.607 3.607 0 0 0 69.492 47c.636 1.878 2.669 2.905 4.545 2.287 1.893-.626 2.914-2.678 2.298-4.543zM78.725 57a4.17 4.17 0 0 0-4.17-4.16A4.168 4.168 0 0 0 70.392 57c0 2.31 1.865 4.182 4.163 4.182A4.175 4.175 0 0 0 78.725 57zm282.316-38.003l-4.389-12.915h-1.819l5.328 14.827-1.912 5.549h1.695l7.241-20.376h-1.85l-4.294 12.915zm-8.324 1.881V10.783c0-3.102-1.472-5.015-4.796-5.015-2.568 0-4.355 1.442-5.267 3.699V6.081h-1.691v14.797h1.756v-7.837c0-3.605 2.224-5.767 4.766-5.767 2.379 0 3.478 1.347 3.478 3.76v9.844h1.754zm-17.919-7.398c0-3.26-1.598-6.302-4.888-6.302-3.231 0-4.514 2.696-4.514 6.302 0 3.575 1.283 6.269 4.514 6.269 3.29 0 4.888-3.039 4.888-6.269zm1.756-7.399v14.795h-1.756v-3.195c-.973 2.163-2.758 3.511-5.203 3.511-4.168 0-5.926-3.449-5.926-7.712 0-4.295 1.758-7.712 5.926-7.712 2.445 0 4.296 1.317 5.268 3.512V6.081h1.691zm-171.74 7.399c0-3.26-1.598-6.302-4.89-6.302-3.229 0-4.515 2.696-4.515 6.302 0 3.575 1.286 6.269 4.515 6.269 3.292 0 4.89-3.039 4.89-6.269zm1.756-7.399v14.795h-1.756v-3.195c-.973 2.163-2.758 3.511-5.203 3.511-4.168 0-5.926-3.449-5.926-7.712 0-4.295 1.758-7.712 5.926-7.712 2.445 0 4.296 1.317 5.267 3.512V6.081h1.692zm152.586 7.399c0-3.606-1.284-6.302-4.515-6.302-3.29 0-4.889 3.042-4.889 6.302 0 3.23 1.599 6.269 4.889 6.269 3.231 0 4.515-2.694 4.515-6.269zm1.726 0c0 4.263-1.758 7.713-5.926 7.713-2.445 0-4.23-1.349-5.204-3.512v8.777h-1.755V6.082h1.692V9.28c.972-2.195 2.822-3.512 5.267-3.512 4.168 0 5.926 3.417 5.926 7.712zm-26.825 7.398v-8.119c0-3.416 1.976-5.485 4.325-5.485 2.322 0 3.483 1.315 3.483 3.76v9.844h1.753V10.783c0-3.04-1.471-5.015-4.766-5.015-2.537 0-4.26 1.536-4.982 3.668-.378-2.258-1.787-3.668-4.547-3.668-2.413 0-4.041 1.442-4.859 3.699V6.081h-1.692v14.797h1.756v-7.837c0-3.574 1.881-5.767 4.324-5.767 2.291 0 3.449 1.315 3.449 3.76v9.844h1.756zm-16.613-7.398c0-3.793-1.537-6.302-4.736-6.302-3.197 0-4.734 2.509-4.734 6.302 0 3.793 1.537 6.269 4.734 6.269 3.199 0 4.736-2.476 4.736-6.269zm1.754 0c0 4.358-2.164 7.712-6.49 7.712-4.324 0-6.49-3.354-6.49-7.712 0-4.388 2.133-7.712 6.49-7.712s6.49 3.324 6.49 7.712zm-15.035-6.865c-.972-.534-2.571-.847-4.107-.847-4.422 0-6.865 2.791-6.865 7.713 0 4.888 2.443 7.711 6.865 7.711 1.536 0 3.135-.344 4.107-.847l-.314-1.348a9.294 9.294 0 0 1-3.606.722c-3.823 0-5.298-2.571-5.298-6.238 0-3.7 1.475-6.271 5.298-6.271 1.412 0 2.634.313 3.606.753l.314-1.348zm-19.585.971V6.049a5.547 5.547 0 0 0-1.35-.155c-2.569 0-3.98 1.692-4.544 3.729V6.081h-1.754v14.797h1.787v-7.805c0-2.885 1.536-5.581 4.608-5.581.438 0 .783.031 1.253.094zm-12.97 4.702c0-2.946-1.004-5.265-4.012-5.265-3.012 0-4.609 1.911-4.799 5.674h8.811v-.409zm1.659 1.724h-10.501c.125 3.542 1.536 5.832 5.455 5.832 1.693 0 3.324-.408 4.576-.941l.284 1.223c-1.191.596-3.073 1.066-5.047 1.066-5.017 0-6.991-3.23-6.991-7.712 0-4.703 2.193-7.712 6.582-7.712 4.17 0 5.642 3.042 5.642 6.835v1.409zm-23.156-7.931h-1.882l-3.919 12.602-3.572-12.602h-1.725l4.421 14.797h1.691l4.078-13.197 4.011 13.197h1.692l4.42-14.797h-1.722l-3.574 12.602-3.919-12.602zm-13.132 10.847c0-2.602-1.943-3.447-4.984-4.357-2.6-.784-3.856-1.192-3.856-2.948 0-1.817 1.349-2.508 3.574-2.508 1.568 0 3.105.377 4.325.911l.345-1.348c-1.191-.533-2.788-.91-4.67-.91-3.354 0-5.297 1.285-5.297 4.045 0 2.382 1.597 3.354 5.109 4.326 2.6.689 3.731 1.347 3.731 2.978 0 1.725-1.224 2.727-3.543 2.727-1.661 0-3.323-.438-4.826-1.099l-.439 1.319c1.691.72 3.604 1.128 5.265 1.128 3.355 0 5.266-1.569 5.266-4.264zm-13.988 3.95V10.783c0-3.102-1.471-5.015-4.795-5.015-2.572 0-4.359 1.442-5.268 3.699V6.081h-1.692v14.797h1.755v-7.837c0-3.605 2.226-5.767 4.764-5.767 2.383 0 3.481 1.347 3.481 3.76v9.844h1.755zm-40.721-8.59c0-2.946-1.003-5.265-4.014-5.265-3.01 0-4.606 1.911-4.797 5.674h8.811v-.409zm1.66 1.724h-10.502c.125 3.542 1.536 5.832 5.456 5.832 1.692 0 3.321-.408 4.575-.941l.283 1.223c-1.192.596-3.071 1.066-5.046 1.066-5.017 0-6.993-3.23-6.993-7.712 0-4.703 2.196-7.712 6.584-7.712 4.171 0 5.643 3.042 5.643 6.835v1.409zm-15.824 6.866V10.783c0-3.102-1.472-5.015-4.795-5.015-2.509 0-4.296 1.41-5.203 3.668V0h-1.756v20.878h1.756v-7.837c0-3.605 2.223-5.767 4.765-5.767 2.379 0 3.479 1.347 3.479 3.76v9.844h1.754zm-17.959.252c-2.445 0-3.417-1.256-3.417-3.417V7.555h-2.132V6.081h2.132V2.132h1.787v3.949h3.794v1.474h-3.794v10.063c0 1.347.439 2.069 2.038 2.069.629 0 1.254-.094 1.725-.281l.096 1.378c-.535.219-1.476.346-2.229.346z" fill="#FF8000"/><path d="M410.969 58.642h11.581a.717.717 0 0 0 .717-.719V55.31a.72.72 0 0 0-.717-.721h-11.581v-3.318c0-3.027.113-3.109 2.855-3.109h9.166a.733.733 0 0 0 .718-.727v-2.312c0-.508-.182-.692-.718-.761-1.165-.178-3.518-.504-7.822-.504-6.016 0-9.196-.042-9.196 7.413V62.72c0 7.456 3.18 7.415 9.196 7.415 4.304 0 6.657-.323 7.822-.506.536-.07.718-.252.718-.762v-2.311a.727.727 0 0 0-.718-.722h-9.166c-2.742 0-2.855-.082-2.855-3.114v-4.078zm63.029 3.947c0-3.471-1.977-5.265-5.024-6.5-2.406-.967-4.513-1.788-6.12-2.421-1.607-.638-2.965-1.732-2.965-2.924 0-1.626 2.005-2.568 4.687-2.568 3.146 0 5.623.441 8.013.658h.07c.368 0 .614-.294.614-.651v-2.68c0-.359-.285-.614-.649-.684-1.23-.294-4.387-.951-7.836-.951-6.729 0-9.933 2.894-9.933 6.876 0 2.531 1.115 5.025 4.262 6.327 3.163 1.303 9.641 2.805 9.641 5.518 0 2.099-.985 3.252-4.203 3.252-3.345 0-6.731-.474-8.18-.655h-.072a.693.693 0 0 0-.688.689v2.607c0 .398.33.648.688.719 1.736.401 4.98.952 8.178.952 7.238 0 9.517-3.911 9.517-7.564zm-28.756-10.555c0-2.714-2.106-3.873-5.729-3.873-.757 0-4.049.074-4.701.146v7.846c.586.036 4.096.109 4.701.109 3.733 0 5.729-.718 5.729-3.9v-.328zm5.864 17.382c0 .249-.149.432-.433.432h-4.419c-.399 0-.541-.367-.72-.724l-5.216-8.774h-.805c-.938 0-3.865-.103-4.701-.147v8.921c0 .396-.286.724-.682.724h-3.616a.73.73 0 0 1-.725-.724V45.408c0-.723.431-.977 1.157-1.084 1.879-.288 5.929-.466 8.567-.466 5.577 0 10.719 1.991 10.719 8.176v.328c0 3.83-1.92 5.927-4.885 7.08l5.687 9.682c.072.109.072.212.072.292zM402.25 47.692v-2.86c0-.401-.325-.687-.718-.687h-19.48c-.392 0-.719.286-.719.687v2.86c0 .397.327.647.719.647h7.224v20.785c0 .396.327.724.724.724h3.583a.734.734 0 0 0 .731-.724V48.339h7.218c.393 0 .718-.25.718-.647zm-24.51 12.2v-15.06c0-.401-.326-.687-.728-.687h-3.582c-.397 0-.721.286-.721.687v15.06c0 4.127-1.905 6.083-5.814 6.083-3.902 0-5.811-1.956-5.811-6.083v-15.06c0-.401-.323-.687-.724-.687h-3.576c-.397 0-.726.286-.726.687v15.06c0 7.711 5.015 10.243 10.837 10.243 5.828 0 10.845-2.532 10.845-10.243zm-39.832-1.25h11.582a.725.725 0 0 0 .724-.719V55.31a.728.728 0 0 0-.724-.721h-11.582v-3.318c0-3.027.116-3.109 2.853-3.109h9.161a.733.733 0 0 0 .726-.727v-2.312c0-.508-.183-.692-.726-.761-1.158-.178-3.515-.504-7.818-.504-6.007 0-9.194-.042-9.194 7.413V62.72c0 7.456 3.187 7.415 9.194 7.415 4.303 0 6.66-.323 7.818-.506.543-.07.726-.252.726-.762v-2.311a.727.727 0 0 0-.726-.722h-9.161c-2.737 0-2.853-.082-2.853-3.114v-4.078zm-15.51-6.608c0-2.714-2.106-3.873-5.725-3.873-.763 0-4.055.074-4.701.146v7.846c.574.036 4.08.109 4.701.109 3.724 0 5.725-.718 5.725-3.9v-.328zm5.862 17.382c0 .249-.144.432-.433.432h-4.418c-.396 0-.543-.367-.722-.724l-5.212-8.774h-.802c-.944 0-3.868-.103-4.701-.147v8.921c0 .396-.292.724-.689.724h-3.621a.728.728 0 0 1-.72-.724V45.408c0-.723.428-.977 1.158-1.084 1.883-.288 5.928-.466 8.573-.466 5.571 0 10.717 1.991 10.717 8.176v.328c0 3.83-1.916 5.927-4.881 7.08l5.677 9.682a.474.474 0 0 1 .074.292zm-70.738-14.271c0-4.775-2.887-6.91-6.434-6.91s-6.433 2.135-6.433 6.91v3.702c0 4.776 2.886 6.908 6.433 6.908 3.547 0 6.434-2.132 6.434-6.908v-3.702zm5.061 0v3.702c0 7.961-5.526 11.288-11.495 11.288-5.969 0-11.495-3.327-11.495-11.288v-3.702c0-7.959 5.526-11.287 11.495-11.287 5.969 0 11.495 3.328 11.495 11.287zm-27.55 7.444c0-3.471-1.973-5.265-5.031-6.5-2.404-.967-4.516-1.788-6.124-2.421-1.6-.634-2.963-1.732-2.963-2.924 0-1.626 2.015-2.568 4.686-2.568 3.151 0 5.629.441 8.019.658h.073c.36 0 .611-.294.611-.651v-2.68c0-.359-.284-.614-.648-.684-1.227-.294-4.384-.951-7.835-.951-6.728 0-9.936 2.894-9.936 6.876 0 2.531 1.115 5.025 4.269 6.327 3.16 1.303 9.63 2.805 9.63 5.518 0 2.099-.977 3.252-4.201 3.252-3.344 0-6.731-.474-8.179-.655h-.073a.689.689 0 0 0-.685.689v2.607c0 .398.325.648.685.719 1.741.401 4.986.952 8.18.952 7.243 0 9.522-3.911 9.522-7.564zm55.269 5.811V44.832a.665.665 0 0 0-.689-.687h-3.114a.663.663 0 0 0-.69.687v17.85c0 .215-.104.328-.176.328-.114 0-.22-.113-.288-.29l-10.208-17.413c-.439-.945-.835-1.162-1.594-1.162h-3.911c-.796 0-1.44.648-1.44 1.445v23.534c0 .396.317.724.723.724h3.069c.397 0 .689-.328.689-.724V52.106c0-.215.079-.293.183-.293.107 0 .219.078.323.293l9.818 16.442c.567 1.3 1.33 1.3 2.199 1.3h3.66a1.45 1.45 0 0 0 1.446-1.448zm-80.311.905V45.59a1.45 1.45 0 0 0-1.449-1.445h-2.968c-.577 0-1.085.358-1.338.868l-6.94 14.135c-.186.325-.259.506-.399.506-.152 0-.226-.181-.405-.506l-6.942-14.135c-.255-.51-.763-.868-1.337-.868h-2.969a1.45 1.45 0 0 0-1.45 1.445v23.715c0 .36.292.543.621.543h3.652c.325 0 .58-.367.58-.724V53.479c0-.253.037-.36.109-.36.031 0 .106.107.183.215l5.881 12.938c.209.393.681.616 1.152.616h1.883c.47 0 .938-.223 1.15-.616l5.842-12.938c.078-.108.15-.215.178-.215.079 0 .116.107.116.36v15.645c0 .357.253.724.574.724h3.656c.328 0 .62-.183.62-.543zm-36.867-14.16c0-4.775-2.884-6.91-6.431-6.91-3.545 0-6.434 2.135-6.434 6.91v3.702c0 4.776 2.889 6.908 6.434 6.908 3.547 0 6.431-2.132 6.431-6.908v-3.702zm5.072 0v3.702c0 7.961-5.531 11.288-11.503 11.288-5.969 0-11.495-3.327-11.495-11.288v-3.702c0-7.959 5.526-11.287 11.495-11.287 5.972 0 11.503 3.328 11.503 11.287zm-28.712 13.979V44.832c0-.401-.33-.687-.724-.687h-3.576c-.406 0-.732.286-.732.687v9.397h-11.461v-9.397c0-.401-.328-.687-.719-.687h-3.582c-.403 0-.726.286-.726.687v24.292c0 .396.323.724.726.724h3.582a.728.728 0 0 0 .719-.724V58.642h11.461v10.482a.73.73 0 0 0 .732.724h3.576a.73.73 0 0 0 .724-.724zm-26.831-20.785h-7.217v20.785a.73.73 0 0 1-.729.724h-3.578a.725.725 0 0 1-.721-.724V48.339h-7.227c-.396 0-.725-.25-.725-.647v-2.86c0-.401.329-.687.725-.687h19.472c.397 0 .725.286.725.687v2.86c0 .397-.328.647-.725.647z" fill="#5F605C"/></g></svg>