<?xml version="1.0" encoding="UTF-8" standalone="no"?>
<svg
   xmlns:dc="http://purl.org/dc/elements/1.1/"
   xmlns:cc="http://creativecommons.org/ns#"
   xmlns:rdf="http://www.w3.org/1999/02/22-rdf-syntax-ns#"
   xmlns:svg="http://www.w3.org/2000/svg"
   xmlns="http://www.w3.org/2000/svg"
   xmlns:sodipodi="http://sodipodi.sourceforge.net/DTD/sodipodi-0.dtd"
   xmlns:inkscape="http://www.inkscape.org/namespaces/inkscape"
   width="423.52344pt"
   height="120.37891pt"
   viewBox="0 0 423.52344 120.3789"
   version="1.1"
   id="svg891"
   sodipodi:docname="cl.svg"
   inkscape:version="0.92.4 (5da689c313, 2019-01-14)">
  <metadata
     id="metadata897">
    <rdf:RDF>
      <cc:Work
         rdf:about="">
        <dc:format>image/svg+xml</dc:format>
        <dc:type
           rdf:resource="http://purl.org/dc/dcmitype/StillImage" />
        <dc:title></dc:title>
      </cc:Work>
    </rdf:RDF>
  </metadata>
  <defs
     id="defs895" />
  <sodipodi:namedview
     pagecolor="#ffffff"
     bordercolor="#666666"
     borderopacity="1"
     objecttolerance="10"
     gridtolerance="10"
     guidetolerance="10"
     inkscape:pageopacity="0"
     inkscape:pageshadow="2"
     inkscape:window-width="2560"
     inkscape:window-height="1080"
     id="namedview893"
     showgrid="false"
     fit-margin-top="0"
     fit-margin-left="0"
     fit-margin-right="0"
     fit-margin-bottom="0"
     inkscape:zoom="1.5434393"
     inkscape:cx="273.86375"
     inkscape:cy="80.24667"
     inkscape:window-x="0"
     inkscape:window-y="0"
     inkscape:window-maximized="0"
     inkscape:current-layer="svg891" />
  <g
     id="surface1"
     transform="translate(-40.117188,-40.121094)">
    <path
       style="fill:#eb1923;fill-opacity:1;fill-rule:nonzero;stroke:none"
       d="M 92.242188,40.121094 40.121094,70.21875 92.242188,100.31641 144.36719,70.21875 92.242188,40.121094"
       id="path876"
       inkscape:connector-curvature="0" />
    <path
       style="fill:#4c4a4a;fill-opacity:1;fill-rule:nonzero;stroke:none"
       d="M 40.117188,130.41016 92.246094,160.5 l -0.0039,-60.18359 z m 0,0"
       id="path878"
       inkscape:connector-curvature="0" />
    <path
       style="fill:#8a8787;fill-opacity:1;fill-rule:nonzero;stroke:none"
       d="M 92.242188,100.31641 92.246094,160.5 144.36719,130.41016 92.242188,100.31641"
       id="path880"
       inkscape:connector-curvature="0" />
    <path
       style="fill:#8a8787;fill-opacity:1;fill-rule:nonzero;stroke:none"
       d="m 92.242188,100.31641 -52.121094,-30.09766 -0.0039,60.19141 52.125,-30.09375"
       id="path882"
       inkscape:connector-curvature="0" />
    <path
       style="fill:#eb1923;fill-opacity:1;fill-rule:nonzero;stroke:none"
       d="m 287.25391,125.82422 c -0.45704,-4.46875 -3.09375,-7.96875 -7.6836,-7.96875 -4.24219,0 -7.22265,3.26562 -7.85156,7.96875 z m -22.41407,2.23828 v -0.11719 c 0,-8.65625 6.13282,-15.76562 14.78907,-15.76562 9.63281,0 14.5039,7.5664 14.5039,16.28125 0,0.63281 -0.0586,1.26172 -0.11328,1.94922 h -22.24219 c 0.7461,4.92968 4.24219,7.68359 8.71094,7.68359 3.38281,0 5.79297,-1.26563 8.19922,-3.61328 l 4.07031,3.61328 c -2.86719,3.4375 -6.82422,5.67578 -12.38281,5.67578 -8.77344,0 -15.53516,-6.36328 -15.53516,-15.70703 z m -22.41406,-15.25391 h 6.9375 v 6.82422 c 1.89063,-4.52734 5.38672,-7.625 10.71875,-7.39453 v 7.33594 h -0.39844 c -6.07812,0 -10.32031,3.95703 -10.32031,11.98437 v 11.52344 h -6.9375 z m -13.41406,15.3086 v -0.11328 c 0,-5.33203 -3.83985,-9.7461 -9.28516,-9.7461 -5.5625,0 -9.11328,4.35547 -9.11328,9.62891 v 0.11719 c 0,5.27343 3.83594,9.6875 9.22656,9.6875 5.61719,0 9.17188,-4.35938 9.17188,-9.57422 z m -25.33594,0 v -0.11328 c 0,-8.65625 6.87891,-15.82422 16.16406,-15.82422 9.28907,0 16.10938,7.05078 16.10938,15.70703 v 0.11719 c 0,8.59765 -6.87891,15.76562 -16.22266,15.76562 -9.23047,0 -16.05078,-7.05078 -16.05078,-15.65234 z m -40.76172,-4.98828 v -0.11328 c 0,-11.41016 8.54297,-20.75391 20.69922,-20.75391 7.39453,0 11.86328,2.58203 15.70703,6.25 l -4.53125,5.21875 c -3.20703,-2.98438 -6.64844,-4.98828 -11.23437,-4.98828 -7.625,0 -13.24219,6.30469 -13.24219,14.16015 v 0.11329 c 0,7.85156 5.55859,14.21484 13.24219,14.21484 4.92968,0 8.08203,-1.94922 11.51953,-5.15625 l 4.53125,4.58594 c -4.1836,4.35546 -8.76953,7.10937 -16.28125,7.10937 -11.69531,0 -20.41016,-9.11719 -20.41016,-20.64062"
       id="path884"
       inkscape:connector-curvature="0" />
    <path
       style="fill:#8a8787;fill-opacity:1;fill-rule:nonzero;stroke:none"
       d="m 422.88281,128.11719 v -0.11328 c 0,-8.59766 6.64844,-15.82422 15.76172,-15.82422 5.67578,0 9.23438,2.12109 12.09766,5.21875 l -4.35547,4.64062 c -2.1211,-2.23437 -4.35938,-3.78125 -7.79688,-3.78125 -5.04297,0 -8.76953,4.35547 -8.76953,9.62891 v 0.11719 c 0,5.39062 3.72656,9.6875 9.0586,9.6875 3.26562,0 5.67187,-1.49219 7.85156,-3.72657 l 4.18359,4.12891 c -2.98047,3.32422 -6.47656,5.67578 -12.38281,5.67578 -9,0 -15.64844,-7.05078 -15.64844,-15.65234 z m -14.04687,-15.3086 h 6.9375 v 30.27344 h -6.9375 z m -0.28516,-11.23437 h 7.45313 v 6.58984 h -7.45313 z m -15.07422,24.87891 v -0.11329 c 0,-4.92968 -4.07031,-8.3125 -8.88672,-8.3125 -4.8164,0 -8.60156,3.32813 -8.60156,8.3125 v 0.11329 c 0,4.93359 3.84375,8.3164 8.60156,8.3164 4.81641,0 8.88672,-3.38281 8.88672,-8.3164 z m -22.98828,22.30468 2.57813,-5.21875 c 3.26562,2.00391 6.64843,3.21094 10.77734,3.21094 6.19141,0 9.57422,-3.21094 9.57422,-9.28906 v -2.34766 c -2.51953,3.26563 -5.67578,5.55859 -10.66406,5.55859 -7.10547,0 -13.75782,-5.27343 -13.75782,-14.16015 v -0.11328 c 0,-8.94531 6.70703,-14.21875 13.75782,-14.21875 5.10546,0 8.2539,2.35156 10.60546,5.16015 v -4.53125 h 6.9375 v 24.07813 c 0,5.10156 -1.3164,8.89062 -3.83984,11.41015 -2.75391,2.75391 -6.99609,4.07032 -12.44141,4.07032 -4.98828,0 -9.6289,-1.26172 -13.52734,-3.60938 z m -12.89062,-20.64062 v -0.11328 c 0,-5.33203 -3.84375,-9.7461 -9.28907,-9.7461 -5.5625,0 -9.11328,4.35547 -9.11328,9.62891 v 0.11719 c 0,5.27343 3.83985,9.6875 9.22656,9.6875 5.61719,0 9.17579,-4.35938 9.17579,-9.57422 z m -25.33985,0 v -0.11328 c 0,-8.65625 6.87891,-15.82422 16.16406,-15.82422 9.28907,0 16.10938,7.05078 16.10938,15.70703 v 0.11719 c 0,8.59765 -6.875,15.76562 -16.22266,15.76562 -9.23047,0 -16.05078,-7.05078 -16.05078,-15.65234 z m -30.33203,-25.16797 h 7.05469 v 33.71094 h 21.09375 v 6.42187 h -28.14844 v -40.13281"
       id="path886"
       inkscape:connector-curvature="0" />
    <path
       style="fill:#8a8787;fill-opacity:1;fill-rule:nonzero;stroke:none"
       d="m 459.23828,112.11328 c 0.61719,0 0.96094,-0.32031 0.96094,-0.77344 0,-0.51171 -0.34375,-0.77343 -0.96094,-0.77343 h -1.14453 v 1.54687 z m -2.05078,-2.34765 h 2.13281 c 1.03906,0 1.8125,0.50781 1.8125,1.49218 0,0.77344 -0.45312,1.25391 -1.09765,1.44141 l 1.26171,1.78516 h -1.09765 l -1.1211,-1.625 h -0.98437 v 1.625 h -0.90625 z m 5.91797,2.45312 v -0.0273 c 0,-2.26953 -1.75781,-4.13282 -4.10156,-4.13282 -2.32032,0 -4.11329,1.89454 -4.11329,4.16016 v 0.0273 c 0,2.26954 1.76172,4.12891 4.11329,4.12891 2.32031,0 4.10156,-1.89062 4.10156,-4.15625 z m -8.74219,0.0273 v -0.0273 c 0,-2.53125 2.05078,-4.66406 4.64063,-4.66406 2.61328,0 4.63671,2.10156 4.63671,4.63672 v 0.0273 c 0,2.53125 -2.05468,4.66797 -4.63671,4.66797 -2.61719,0 -4.64063,-2.10547 -4.64063,-4.64063"
       id="path888"
       inkscape:connector-curvature="0" />
  </g>
</svg>
