<svg xmlns="http://www.w3.org/2000/svg" viewBox="0 0 488 73">
  <defs/>
  <g fill="none" fill-rule="evenodd">
    <path fill="#ff8000" d="M28.57 40.492c.574-.127.939-.702.84-1.284-.128-.598-.707-1.006-1.29-.855-.58866.09403-.978597.661832-.855 1.245.122.615.698 1.034 1.305.894zm22.197-4.634c.574-.132.936-.701.84-1.284-.132-.608-.715-1.015-1.292-.862-.613.097-.968.688-.855 1.255.116.602.7 1.018 1.307.891zm-19.533 9.544c.65711-.525738.778787-1.477913.275-2.152-.55-.635-1.496-.752-2.154-.253-.638.487-.758 1.453-.232 2.113.496.655 1.458.818 2.111.292zm18.144-14.244c.682-.556.76-1.497.272-2.152-.545-.631-1.495-.747-2.145-.249-.650239.517947-.754366 1.466305-.232 2.113.496.656 1.456.818 2.105.288zM37.195 48.839c.428-1.032-.139-2.252-1.174-2.622-1.092-.425-2.231.11-2.677 1.215-.406 1.039.149 2.21 1.221 2.623 1.077.356 2.231-.158 2.63-1.216zm8.245-22.012c.408-1.02-.14-2.246-1.184-2.614-1.088-.419-2.222.12-2.678 1.214-.41 1.043.157 2.213 1.216 2.625 1.081.349 2.238-.15 2.646-1.225zm3.682 12.846c-.184.841.233 1.629 1.046 1.845.807.221 1.638-.291 1.85-1.062.206727-.794924-.275713-1.605584-1.073-1.803-.78543-.224798-1.603674.233024-1.823 1.02zm-3.033 4.168c-.849706.891447-.842639 2.295153.016 3.178.888.848 2.282.833 3.084-.008.915-.86.933-2.304.056-3.141-.865415-.874988-2.274652-.887938-3.156-.029zm-4.657 2.443c-1.201.299-2.034 1.538-1.737 2.75.262 1.263 1.533 2.059 2.77 1.784 1.263-.259 2.027-1.532 1.775-2.773-.302-1.268-1.533-2.011-2.808-1.761zM26.785 33.709c-.228.826.241 1.615 1.071 1.866.764.2 1.59-.278 1.798-1.065.231-.801-.279-1.606-1.052-1.823-.783261-.213732-1.592877.241649-1.817 1.022zm2.771-6.522c-.834.886-.876 2.275-.012 3.13.867.877 2.259.884 3.169 0 .845-.855.845-2.244-.029-3.13-.867408-.854953-2.260592-.854953-3.128 0zm6.786-3.792c-1.255761.255612-2.068795 1.478069-1.819 2.735.321 1.249 1.534 2.049 2.808 1.755 1.241712-.279589 2.024211-1.509869 1.751-2.753-.287-1.232-1.532-2.035-2.74-1.737zm14.826 27.86c.669.647 1.66.669 2.295-.006.64-.593.676-1.59.009-2.226-.612-.662-1.669-.653-2.276-.041-.627.635-.635 1.674-.028 2.273zM25.144 25.074c.647.638 1.678.667 2.305-.008.609-.621.632-1.649-.007-2.273-.635937-.61928-1.648901-.621052-2.287-.004-.61274.636734-.617581 1.642396-.011 2.285zm30.594 20.554c.835.36 1.778-.05 2.129-.864.335955-.822641-.04934-1.76275-.866-2.113-.814615-.37023-1.772455.02631-2.087.864-.379.839.049 1.797.824 2.113zm2.296-6.332c1.081 0 1.954-.846 1.958-1.917.02682-1.068517-.823271-1.953653-1.892-1.97-1.049-.013-1.961.813-1.986 1.897.01601 1.06548.855776 1.935866 1.92 1.99zm-.031-6.856c1.29-.485 1.906-1.937 1.377-3.235-.484-1.254-1.906-1.925-3.163-1.422-1.32.517-1.965 1.946-1.46 3.228.499215 1.293389 1.954959 1.934258 3.246 1.429zM21.62 31.406c.848.318 1.783-.066 2.132-.889.329945-.824605-.05071-1.762552-.862-2.124-.827-.35-1.802.064-2.12.886-.34.813.045 1.762.85 2.127zm-1.083 7.238c1.042.006 1.93-.851 1.954-1.921.018-1.048-.868-1.932-1.879-1.949-1.088-.023-1.971.808-1.994 1.882-.01894 1.078845.840158 1.968839 1.919 1.988zm1.905 7.616c1.301455-.496304 1.939782-1.966173 1.414-3.256-.483554-1.290146-1.941896-1.920596-3.213-1.389-1.280148.492633-1.917274 1.930872-1.422 3.21.51 1.278 1.925 1.937 3.221 1.435zm23.235 6.251c-.875.358-1.336 1.355-.946 2.269.367.895 1.404 1.337 2.285.983.892-.382 1.34-1.382.935-2.306-.342-.904-1.385-1.331-2.274-.946zm-6.423.91c-1.283-.021-2.336 1.051-2.364 2.347.01561 1.295267 1.051136 2.347127 2.346 2.383 1.301-.029 2.358-1.047 2.387-2.353.02-1.284-1.044-2.343-2.369-2.377zm-6.058-1.214c-1.374-.578-2.931.124-3.503 1.504-.529 1.366.151 2.943 1.514 3.468 1.34.544 2.914-.069 3.461-1.45.559677-1.379028-.09747-2.951362-1.472-3.522zm-5.319-3.836c-1.137-1.175-3.031-1.173-4.177-.027-1.192 1.183-1.205 3.049-.051 4.214 1.186 1.161 3.061 1.17 4.228.031 1.170087-1.162561 1.170087-3.055439 0-4.218zm3.749-30.065c-.891667.360397-1.324346 1.373706-.968 2.267.401.913 1.415 1.337 2.313.991.890916-.385318 1.306009-1.415696.931-2.311-.357-.915-1.392-1.319-2.276-.947zm7.773-2.405c-1.312096.0017-2.375347 1.064904-2.377 2.377.03658 1.284164 1.083347 2.308829 2.368 2.318 1.27.023 2.358-1.047 2.333-2.343.025-1.248-1.039-2.335-2.324-2.352zm8.065.971c-1.354-.554-2.92.123-3.492 1.459-.543 1.349.131 2.972 1.473 3.507 1.403.551 2.948-.118 3.491-1.493.565-1.371-.106-2.909-1.472-3.473zm7.488 4.629c-1.184-1.168-3.063-1.191-4.228.015-1.153 1.108-1.153 2.998 0 4.153 1.153606 1.17466 3.042328 1.187664 4.212.029 1.178-1.184 1.205-3.035.016-4.197zm.316 36.387c.507662.599824 1.405604.674168 2.005.166.599-.496.674-1.4.156-1.988-.511309-.574428-1.384553-.64367-1.98-.157-.597.509-.669 1.402-.181 1.979zm4.306-3.871c.724.534 1.753.39 2.284-.347.53715-.720595.391497-1.739719-.326-2.281-.748-.538-1.774-.394-2.295.337-.536363.72651-.385852 1.749718.337 2.291zm3.746-5.291c.990146.413477 2.125967-.07492 2.507-1.078.406436-.989763-.07555-2.120698-1.071-2.513-.991147-.401122-2.119118.08377-2.51 1.079-.385236.990082.09206 2.106449 1.074 2.512zm2.538-6.89c1.112.134 2.131-.694 2.249-1.802.124349-1.122912-.687611-2.133041-1.811-2.253-1.137-.109-2.143.703-2.26 1.81-.121 1.113.7 2.144 1.822 2.245zm.513-7.152c1.365835-.236296 2.271351-1.548123 2.008-2.909-.222-1.352-1.538-2.264-2.908-2.015-1.358.262-2.268 1.546-2.015 2.915.265 1.358 1.548 2.274 2.915 2.009zM21.273 17.941c.535.585 1.411.667 1.994.17.6-.528.669-1.413.177-1.998-.506-.577-1.415-.657-1.996-.154-.586776.503579-.664459 1.383395-.175 1.982zm-4.073 4.69c.726332.540876 1.755289.379383 2.281-.358.546168-.710355.397771-1.73149-.328-2.257-.71858-.547935-1.746835-.40014-2.282.328-.53884.722859-.391749 1.745341.329 2.287zm-3.249 6.247c.998181.393245 2.126786-.0914 2.529-1.086.393543-.991068-.09028-2.113578-1.081-2.508-.996584-.39942-2.128415.08329-2.53 1.079-.380521.993028.09935 2.108435 1.082 2.515zm-1.52 7.355c1.118.138 2.129-.704 2.275-1.819.0914-1.129054-.735359-2.124541-1.862-2.242-1.105-.12-2.114.699-2.235 1.811-.125857 1.12671.693745 2.138842 1.822 2.25zm.809 8.022c1.366555-.230703 2.277663-1.538082 2.021-2.9-.246-1.364-1.537-2.294-2.913-2.021-1.361432.244829-2.265855 1.547934-2.019 2.909.249 1.343 1.541 2.273 2.911 2.012zm38.104 14.76c-.583.312-.789 1.064-.474 1.644.317.585 1.05.795 1.641.483.579-.313.814-1.049.486-1.633-.318174-.595177-1.060428-.817-1.653-.494zm-4.828 1.768c-.735653.228539-1.15524 1.001627-.946 1.743.225292.748727 1.010164 1.17769 1.762.963.733-.234 1.174-1.02.941-1.774-.224-.728-1.01-1.143-1.757-.932zm-5.583.906c-.907.044-1.58.833-1.52 1.729.074.906.837 1.586 1.739 1.521.900097-.0571 1.580754-.837494 1.515-1.737-.033-.896-.835-1.567-1.734-1.513zm-6.221-.632c-1.143811-.222708-2.253344.518171-2.486 1.66-.229981 1.150789.515535 2.270405 1.666 2.502 1.157247.231243 2.280287-.527944 2.497-1.688.218573-1.145955-.531583-2.252625-1.677-2.474zm-6.364-2.325c-1.240473-.605481-2.737322-.1049-3.364 1.125-.600953 1.2349-.115962 2.723915 1.097 3.368 1.249804.608267 2.756476.101741 3.385-1.138.617-1.213.112-2.726-1.118-3.355zm-5.387-4.17c-1.196-1.104-3.055-1.042-4.15.136-1.109976 1.183798-1.050895 3.043061.132 4.154 1.187 1.112 3.056 1.057 4.159-.121 1.11-1.213 1.057-3.065-.141-4.169zm-4.419-6.234c-.846352-1.540575-2.778944-2.106986-4.323-1.267-1.536298.845729-2.095975 2.776837-1.25 4.313.836784 1.541129 2.761165 2.117058 4.307 1.289 1.540356-.852545 2.105431-2.787458 1.266-4.335zm7.669-35.46c-.592821.315231-.813653 1.054185-.491 1.643.319.577 1.054.816 1.648.484.58-.322.804-1.066.492-1.649-.32447-.585969-1.061451-.799599-1.649-.478zm5.18-2.328c-.738.213-1.146 1.001-.933 1.751.234.742 1.008 1.169 1.744.944.747779-.223583 1.169007-1.014792.937-1.76-.211-.743-.988-1.16-1.748-.935zm6.163-1.47c-.891366.06724-1.565662.834373-1.518 1.727.06467.900932.840155 1.583375 1.742 1.533.906-.053 1.58-.846 1.525-1.749-.06873-.898712-.849836-1.57353-1.749-1.511zm7.272-.254c-1.152779-.237833-2.276713.515361-2.495 1.672-.21928 1.145655.529928 2.252694 1.675 2.475 1.148031.225031 2.262291-.519298 2.494-1.666.217226-1.14622-.5298-2.253371-1.674-2.481zm7.571 1.837c-1.221-.614-2.725-.116-3.348 1.161-.601814 1.236998-.09444 2.727889 1.137 3.341 1.243.601 2.754.117 3.355-1.149.61187-1.241692.09922-2.74424-1.144-3.353zm7.402 4.492c-1.196-1.119-3.057-1.061-4.159.128-1.092 1.195-1.05 3.059.146 4.171 1.181 1.097 3.056 1.043 4.161-.141 1.102-1.192 1.049-3.061-.148-4.158zm5.96 7.492c-.847047-1.53868-2.773711-2.110484-4.323-1.283-1.542.852-2.114 2.785-1.276 4.316.839676 1.546617 2.768847 2.127644 4.323 1.302 1.544502-.848693 2.114421-2.784897 1.276-4.335zM44.593 71.003c.199787 1.004417 1.184162 1.650005 2.185 1.433.996649-.207731 1.635783-1.18457 1.427-2.181-.201-.992-1.194-1.626-2.183-1.426-.991479.210808-1.628688 1.180222-1.429 2.174zm7.363-1.778c.494162 1.078181 1.768656 1.551808 2.847 1.058 1.075294-.50511 1.540834-1.78378 1.042-2.862-.497519-1.076249-1.776691-1.540953-2.849-1.035-1.061605.505524-1.52384 1.767339-1.04 2.839zm7.541-3.658c.921479 1.138891 2.599628 1.296457 3.717.349 1.129297-.927683 1.283919-2.598867.344-3.718-.923038-1.126002-2.589265-1.278173-3.701-.338-1.119696.926044-1.280591 2.582816-.36 3.707zm7.101-6.085c1.374.964 3.301.609 4.254-.769.957819-1.390347.611359-3.293418-.775-4.257-1.416-.965-3.304-.626-4.266.776-.941 1.379-.611 3.31.787 4.25zm5.186-7.907c1.872.631 3.919-.412 4.551-2.303.622-1.866-.399-3.913-2.298-4.55-1.886478-.619083-3.917951.406498-4.54 2.292-.628452 1.891059.395646 3.933434 2.287 4.561zM30.515 3.742c.201886 1.004741 1.18575 1.650907 2.188 1.437.99841-.205273 1.6391-1.183806 1.428-2.181-.213981-.991464-1.186385-1.625756-2.18-1.422-.998579.195752-1.644479 1.170001-1.436 2.166zm-7.642 2.854c.500086 1.074274 1.779929 1.535017 2.85 1.026 1.078-.482 1.535-1.757 1.043-2.828-.506178-1.062995-1.767394-1.528798-2.843-1.05-1.070561.503997-1.538178 1.774133-1.05 2.852zm-7.722 5.206c.927481 1.133662 2.603498 1.288524 3.723.344 1.123532-.921981 1.283187-2.58176.356-3.701-.923703-1.135877-2.598634-1.295265-3.72-.354-1.129918.922417-1.291152 2.589099-.359 3.711zm-6.504 7.762c1.39.969 3.292.607 4.275-.783.944315-1.398384.588111-3.296203-.799-4.257-1.387817-.958209-3.2893504-.612435-4.251.773-.9628814 1.392614-.616099 3.301931.775 4.267zm-3.961 9.73c1.881.63 3.918-.405 4.546-2.287.6234168-1.890289-.4049761-3.927815-2.296-4.549-1.8874607-.624734-3.9239273.399321-4.548 2.287-.612 1.871.396 3.924 2.298 4.549zm34.683 40.535c-.87501.0028-1.583353.711987-1.585 1.587 0 .878.705 1.577 1.585 1.589.874034-.0066 1.580191-.714949 1.584-1.589 0-.865-.712-1.587-1.584-1.587zm-6.66-1c-.996-.2-1.986.443-2.185 1.433-.208159.996088.430826 1.972253 1.427 2.18.997509.212212 1.976682-.42964 2.18-1.429.203921-.994547-.429978-1.968131-1.422-2.184zm-6.996-2.444c-1.065704-.508763-2.341555-.0458-2.833 1.028-.495919 1.074861-.02969 2.348395 1.043 2.849 1.074879.498743 2.350339.02768 2.843-1.05.492-1.052.017-2.338-1.053-2.827zm-6.841-4.525c-1.123865-.930644-2.789189-.774898-3.721.348-.935816 1.118309-.778492 2.78549.35 3.709 1.12066.94684 2.800327.789019 3.725-.35.925431-1.12156.766976-2.780862-.354-3.707zm-5.961-6.628c-.964768-1.385181-2.868807-1.727872-4.256-.766-1.388.945-1.74 2.856-.798 4.256.9781442 1.377973 2.880122 1.717882 4.275.764 1.391863-.958276 1.740968-2.864686.779-4.254zm-3.673-8.226c-.639-1.886-2.673-2.91-4.544-2.289-1.8924338.620594-2.9244412 2.656862-2.306 4.55.6207201 1.893517 2.661204 2.922947 4.553 2.297 1.890281-.627459 2.9172739-2.665349 2.297-4.558zM8.318 37c-.0011043-2.298219-1.8647812-4.160552-4.163-4.16C1.8605905 32.845507.0027478 34.705586 0 37c0 2.31 1.863 4.182 4.155 4.182 2.3056778-.002198 4.1713008-1.876336 4.163-4.182zM39.35 1.004c-.8736-.0022-1.581888.707405-1.578 1.581 0 .875.703 1.589 1.578 1.589.879 0 1.584-.714 1.584-1.589 0-.873-.705-1.586-1.584-1.581zm7.43.577c-.996992-.214741-1.977282.426494-2.18 1.426-.205765.992201.430314 1.963765 1.422 2.172 1.001322.220797 1.988366-.425047 2.187-1.431.207618-.993741-.433811-1.966434-1.429-2.167zm8.017 2.163c-1.07266-.479296-2.331954-.01787-2.841 1.041-.483 1.061-.024 2.346 1.04 2.837 1.071505.511702 2.354448.04653 2.849-1.033.499749-1.07488.02961-2.351165-1.048-2.845zm8.41 4.351c-1.121373-.935498-2.790754-.775482-3.714.356-.929289 1.121842-.769664 2.785345.356 3.71 1.126.935 2.797.773 3.708-.351.937603-1.119924.78027-2.789896-.35-3.715zm7.637 7.202c-.963205-1.388321-2.870256-1.731473-4.257-.766-1.382398.960465-1.731516 2.856058-.782 4.246.95329 1.406731 2.873512 1.760977 4.266.787 1.393-.972 1.733-2.853.773-4.267zm5.491 9.447c-.638-1.899-2.679-2.921-4.551-2.295-1.888128.625561-2.913494 2.661529-2.292 4.551.636 1.878 2.669 2.905 4.545 2.287 1.893-.626 2.914-2.678 2.298-4.543zM78.725 37c-.0055-2.299121-1.870872-4.160007-4.17-4.16-2.29685.0028-4.158593 1.863152-4.163 4.16 0 2.31 1.865 4.182 4.163 4.182 2.306572-.0028 4.173869-1.87543 4.17-4.182z"/>
    <path fill="#5f605c" d="M410.969 38.642h11.581a.717.717 0 00.717-.719V35.31a.72.72 0 00-.717-.721h-11.581v-3.318c0-3.027.113-3.109 2.855-3.109h9.166a.733.733 0 00.718-.727v-2.312c0-.508-.182-.692-.718-.761-1.165-.178-3.518-.504-7.822-.504-6.016 0-9.196-.042-9.196 7.413V42.72c0 7.456 3.18 7.415 9.196 7.415 4.304 0 6.657-.323 7.822-.506.536-.07.718-.252.718-.762v-2.311a.727.727 0 00-.718-.722h-9.166c-2.742 0-2.855-.082-2.855-3.114zm63.029 3.947c0-3.471-1.977-5.265-5.024-6.5-2.406-.967-4.513-1.788-6.12-2.421-1.607-.638-2.965-1.732-2.965-2.924 0-1.626 2.005-2.568 4.687-2.568 3.146 0 5.623.441 8.013.658h.07c.368 0 .614-.294.614-.651v-2.68c0-.359-.285-.614-.649-.684-1.23-.294-4.387-.951-7.836-.951-6.729 0-9.933 2.894-9.933 6.876 0 2.531 1.115 5.025 4.262 6.327 3.163 1.303 9.641 2.805 9.641 5.518 0 2.099-.985 3.252-4.203 3.252-3.345 0-6.731-.474-8.18-.655h-.072a.693.693 0 00-.688.689v2.607c0 .398.33.648.688.719 1.736.401 4.98.952 8.178.952 7.238 0 9.517-3.911 9.517-7.564zm-28.756-10.555c0-2.714-2.106-3.873-5.729-3.873-.757 0-4.049.074-4.701.146v7.846c.586.036 4.096.109 4.701.109 3.733 0 5.729-.718 5.729-3.9zm5.864 17.382c0 .249-.149.432-.433.432h-4.419c-.399 0-.541-.367-.72-.724l-5.216-8.774h-.805c-.938 0-3.865-.103-4.701-.147v8.921c0 .396-.286.724-.682.724h-3.616a.73.73 0 01-.725-.724V25.408c0-.723.431-.977 1.157-1.084 1.879-.288 5.929-.466 8.567-.466 5.577 0 10.719 1.991 10.719 8.176v.328c0 3.83-1.92 5.927-4.885 7.08l5.687 9.682c.072.109.072.212.072.292zM402.25 27.692v-2.86c0-.401-.325-.687-.718-.687h-19.48c-.392 0-.719.286-.719.687v2.86c0 .397.327.647.719.647h7.224v20.785c0 .396.327.724.724.724h3.583a.734.734 0 00.731-.724V28.339h7.218c.393 0 .718-.25.718-.647zm-24.51 12.2v-15.06c0-.401-.326-.687-.728-.687h-3.582c-.397 0-.721.286-.721.687v15.06c0 4.127-1.905 6.083-5.814 6.083-3.902 0-5.811-1.956-5.811-6.083v-15.06c0-.401-.323-.687-.724-.687h-3.576c-.397 0-.726.286-.726.687v15.06c0 7.711 5.015 10.243 10.837 10.243 5.828 0 10.845-2.532 10.845-10.243zm-39.832-1.25h11.582a.725.725 0 00.724-.719V35.31a.728.728 0 00-.724-.721h-11.582v-3.318c0-3.027.116-3.109 2.853-3.109h9.161a.733.733 0 00.726-.727v-2.312c0-.508-.183-.692-.726-.761-1.158-.178-3.515-.504-7.818-.504-6.007 0-9.194-.042-9.194 7.413V42.72c0 7.456 3.187 7.415 9.194 7.415 4.303 0 6.66-.323 7.818-.506.543-.07.726-.252.726-.762v-2.311a.727.727 0 00-.726-.722h-9.161c-2.737 0-2.853-.082-2.853-3.114zm-15.51-6.608c0-2.714-2.106-3.873-5.725-3.873-.763 0-4.055.074-4.701.146v7.846c.574.036 4.08.109 4.701.109 3.724 0 5.725-.718 5.725-3.9zm5.862 17.382c0 .249-.144.432-.433.432h-4.418c-.396 0-.543-.367-.722-.724l-5.212-8.774h-.802c-.944 0-3.868-.103-4.701-.147v8.921c0 .396-.292.724-.689.724h-3.621a.728.728 0 01-.72-.724V25.408c0-.723.428-.977 1.158-1.084 1.883-.288 5.928-.466 8.573-.466 5.571 0 10.717 1.991 10.717 8.176v.328c0 3.83-1.916 5.927-4.881 7.08l5.677 9.682a.474.474 0 01.074.292zm-70.738-14.271c0-4.775-2.887-6.91-6.434-6.91s-6.433 2.135-6.433 6.91v3.702c0 4.776 2.886 6.908 6.433 6.908 3.547 0 6.434-2.132 6.434-6.908zm5.061 0v3.702c0 7.961-5.526 11.288-11.495 11.288-5.969 0-11.495-3.327-11.495-11.288v-3.702c0-7.959 5.526-11.287 11.495-11.287 5.969 0 11.495 3.328 11.495 11.287zm-27.55 7.444c0-3.471-1.973-5.265-5.031-6.5-2.404-.967-4.516-1.788-6.124-2.421-1.6-.634-2.963-1.732-2.963-2.924 0-1.626 2.015-2.568 4.686-2.568 3.151 0 5.629.441 8.019.658h.073c.36 0 .611-.294.611-.651v-2.68c0-.359-.284-.614-.648-.684-1.227-.294-4.384-.951-7.835-.951-6.728 0-9.936 2.894-9.936 6.876 0 2.531 1.115 5.025 4.269 6.327 3.16 1.303 9.63 2.805 9.63 5.518 0 2.099-.977 3.252-4.201 3.252-3.344 0-6.731-.474-8.179-.655h-.073a.689.689 0 00-.685.689v2.607c0 .398.325.648.685.719 1.741.401 4.986.952 8.18.952 7.243 0 9.522-3.911 9.522-7.564zm55.269 5.811V24.832a.665.665 0 00-.689-.687h-3.114a.663.663 0 00-.69.687v17.85c0 .215-.104.328-.176.328-.114 0-.22-.113-.288-.29l-10.208-17.413c-.439-.945-.835-1.162-1.594-1.162h-3.911c-.796 0-1.44.648-1.44 1.445v23.534c0 .396.317.724.723.724h3.069c.397 0 .689-.328.689-.724V32.106c0-.215.079-.293.183-.293.107 0 .219.078.323.293l9.818 16.442c.567 1.3 1.33 1.3 2.199 1.3h3.66a1.45 1.45 0 001.446-1.448zm-80.311.905V25.59a1.45 1.45 0 00-1.449-1.445h-2.968c-.577 0-1.085.358-1.338.868l-6.94 14.135c-.186.325-.259.506-.399.506-.152 0-.226-.181-.405-.506l-6.942-14.135c-.255-.51-.763-.868-1.337-.868h-2.969a1.45 1.45 0 00-1.45 1.445v23.715c0 .36.292.543.621.543h3.652c.325 0 .58-.367.58-.724V33.479c0-.253.037-.36.109-.36.031 0 .106.107.183.215l5.881 12.938c.209.393.681.616 1.152.616h1.883c.47 0 .938-.223 1.15-.616l5.842-12.938c.078-.108.15-.215.178-.215.079 0 .116.107.116.36v15.645c0 .357.253.724.574.724h3.656c.328 0 .62-.183.62-.543zm-36.867-14.16c0-4.775-2.884-6.91-6.431-6.91-3.545 0-6.434 2.135-6.434 6.91v3.702c0 4.776 2.889 6.908 6.434 6.908 3.547 0 6.431-2.132 6.431-6.908zm5.072 0v3.702c0 7.961-5.531 11.288-11.503 11.288-5.969 0-11.495-3.327-11.495-11.288v-3.702c0-7.959 5.526-11.287 11.495-11.287 5.972 0 11.503 3.328 11.503 11.287zm-28.712 13.979V24.832c0-.401-.33-.687-.724-.687h-3.576c-.406 0-.732.286-.732.687v9.397h-11.461v-9.397c0-.401-.328-.687-.719-.687h-3.582c-.403 0-.726.286-.726.687v24.292c0 .396.323.724.726.724h3.582a.728.728 0 00.719-.724V38.642h11.461v10.482a.73.73 0 00.732.724h3.576a.73.73 0 00.724-.724zm-26.831-20.785h-7.217v20.785a.73.73 0 01-.729.724h-3.578a.725.725 0 01-.721-.724V28.339h-7.227c-.396 0-.725-.25-.725-.647v-2.86c0-.401.329-.687.725-.687h19.472c.397 0 .725.286.725.687v2.86c0 .397-.328.647-.725.647z"/>
  </g>
</svg>