<svg id="Layer_1" data-name="Layer 1" xmlns="http://www.w3.org/2000/svg" viewBox="0 0 130 60"><defs><style>.cls-1{fill:#f22f46;}</style></defs><title>twilio-logo-redArtboard 1</title><path class="cls-1" d="M29.4,26.3a3.1,3.1,0,1,1-3.1-3.1A3.12,3.12,0,0,1,29.4,26.3Zm-3.1,4.3a3.1,3.1,0,1,0,3.1,3.1A3.12,3.12,0,0,0,26.3,30.6ZM45,30A15,15,0,1,1,30,15,15,15,0,0,1,45,30Zm-4,0A11,11,0,1,0,30,41,11,11,0,0,0,41,30Zm-7.3.6a3.1,3.1,0,1,0,3.1,3.1A3.12,3.12,0,0,0,33.7,30.6Zm0-7.4a3.1,3.1,0,1,0,3.1,3.1A3.12,3.12,0,0,0,33.7,23.2Zm51.6-2.3c.1,0,.2.1.3.2v3.2a.32.32,0,0,1-.3.3H80a.32.32,0,0,1-.3-.3V21.2a.32.32,0,0,1,.3-.3Zm-.1,4.5H75a.32.32,0,0,0-.3.3l-1.3,5-.1.3-1.6-5.3a.45.45,0,0,0-.3-.3h-4a.32.32,0,0,0-.3.3l-1.5,5-.1.3-.1-.3-.6-2.5-.6-2.5a.45.45,0,0,0-.3-.3h-8V21.1a.3.3,0,0,0-.4-.2l-5,1.6a.27.27,0,0,0-.3.3v2.7H48.9a.32.32,0,0,0-.3.3v3.8a.32.32,0,0,0,.3.3h1.3v4.7c0,3.3,1.8,4.8,5.1,4.8a7.67,7.67,0,0,0,3.6-.8v-4c0-.2-.2-.3-.3-.2a3.93,3.93,0,0,1-1.4.3,1.22,1.22,0,0,1-1.4-1.4V29.9h2.9a.32.32,0,0,0,.3-.3V26.4L62.8,39a.45.45,0,0,0,.3.3h4.2a.32.32,0,0,0,.3-.3l1.8-5.6.9,2.9.8,2.7a.45.45,0,0,0,.3.3h4.2a.32.32,0,0,0,.3-.3l3.8-12.6V39a.32.32,0,0,0,.3.3h5.1a.32.32,0,0,0,.3-.3V25.7C85.4,25.6,85.3,25.4,85.2,25.4Zm6.7-4.5H86.8a.32.32,0,0,0-.3.3V38.9a.32.32,0,0,0,.3.3h5.1a.32.32,0,0,0,.3-.3V21.1C92.2,21,92.1,20.9,91.9,20.9Zm6.8,0H93.4a.32.32,0,0,0-.3.3v3.1a.32.32,0,0,0,.3.3h5.3a.32.32,0,0,0,.3-.3V21.1C99,21,98.9,20.9,98.7,20.9Zm-.1,4.5H93.5a.32.32,0,0,0-.3.3V38.8a.32.32,0,0,0,.3.3h5.1a.32.32,0,0,0,.3-.3V25.7A.32.32,0,0,0,98.6,25.4Zm16.1,6.8c0,3.8-3.2,7.1-7.7,7.1a7.31,7.31,0,0,1-7.6-7.1c0-3.8,3.2-7.1,7.7-7.1A7.31,7.31,0,0,1,114.7,32.2Zm-5.4.1a2.21,2.21,0,0,0-2.2-2.4,2.27,2.27,0,0,0-2.2,2.4,2.33,2.33,0,0,0,2.2,2.4A2.27,2.27,0,0,0,109.3,32.3Z"/></svg>